<mxfile host="65bd71144e">
    <diagram id="K4mYDS_e9uCiHMoTGQKk" name="Page-1">
        <mxGraphModel dx="1905" dy="616" grid="1" gridSize="10" guides="1" tooltips="1" connect="1" arrows="1" fold="1" page="1" pageScale="1" pageWidth="850" pageHeight="1100" math="0" shadow="0">
            <root>
                <mxCell id="0"/>
                <mxCell id="1" parent="0"/>
                <mxCell id="108" value="" style="rounded=0;whiteSpace=wrap;html=1;fontSize=22;" vertex="1" parent="1">
                    <mxGeometry x="-850" y="40" width="860" height="1820" as="geometry"/>
                </mxCell>
                <mxCell id="109" value="&lt;h1&gt;&lt;br&gt;&lt;/h1&gt;" style="rounded=1;whiteSpace=wrap;html=1;" vertex="1" parent="1">
                    <mxGeometry x="-750" y="332.57" width="690" height="150" as="geometry"/>
                </mxCell>
                <mxCell id="110" value="&lt;h1&gt;&lt;br&gt;&lt;/h1&gt;" style="rounded=1;whiteSpace=wrap;html=1;fontSize=18;" vertex="1" parent="1">
                    <mxGeometry x="-750" y="582.5699999999999" width="690" height="170" as="geometry"/>
                </mxCell>
                <mxCell id="111" value="&lt;h1&gt;Data Access Layer&lt;/h1&gt;" style="rounded=1;whiteSpace=wrap;html=1;fontSize=18;" vertex="1" parent="1">
                    <mxGeometry x="-750" y="842.5699999999999" width="690" height="100" as="geometry"/>
                </mxCell>
                <mxCell id="112" value="&lt;h1&gt;&lt;br&gt;&lt;/h1&gt;" style="rounded=1;whiteSpace=wrap;html=1;fontSize=18;" vertex="1" parent="1">
                    <mxGeometry x="-760" y="1092.57" width="690" height="720" as="geometry"/>
                </mxCell>
                <mxCell id="113" value="Infrastructure Layer" style="text;html=1;strokeColor=none;fillColor=none;align=center;verticalAlign=middle;whiteSpace=wrap;rounded=0;fontSize=41;fontStyle=1" vertex="1" parent="1">
                    <mxGeometry x="-690" y="1134.57" width="550" height="60" as="geometry"/>
                </mxCell>
                <mxCell id="114" value="" style="rounded=0;whiteSpace=wrap;html=1;fontSize=41;" vertex="1" parent="1">
                    <mxGeometry x="-690" y="1212.57" width="560" height="530" as="geometry"/>
                </mxCell>
                <mxCell id="115" value="&lt;font style=&quot;font-size: 20px;&quot;&gt;Cluster&lt;/font&gt;" style="rounded=0;whiteSpace=wrap;html=1;fontSize=41;" vertex="1" parent="1">
                    <mxGeometry x="-690" y="1212.57" width="130" height="40" as="geometry"/>
                </mxCell>
                <mxCell id="116" value="" style="shape=image;verticalLabelPosition=bottom;verticalAlign=top;imageAspect=0;image=data:image/jpeg,/9j/4AAQSkZJRgABAQAAAQABAAD/2wBDAAsJCQcJCQcJCQkJCwkJCQkJCQsJCwsMCwsLDA0QDBEODQ4MEhkSJRodJR0ZHxwpKRYlNzU2GioyPi0pMBk7IRP/2wBDAQcICAsJCxULCxUsHRkdLCwsLCwsLCwsLCwsLCwsLCwsLCwsLCwsLCwsLCwsLCwsLCwsLCwsLCwsLCwsLCwsLCz/wAARCAEGAQYDASIAAhEBAxEB/8QAHAABAQADAQEBAQAAAAAAAAAAAAEGBwgFAgME/8QAUxAAAQIEAwMGCgYFCQcDBQAAAQACAxEhMQQFQQZRYQcSMnGBsRMWIkJykaHB0dMUF1WTlNIVI1aVoiQlNVJzdIKy4TRiZJKz8PFDdYMzRVOjw//EABQBAQAAAAAAAAAAAAAAAAAAAAD/xAAUEQEAAAAAAAAAAAAAAAAAAAAA/9oADAMBAAIRAxEAPwDbRJmAO07kJlxJsEJlxJsFAObNzjXU+4ILOQmT1oCSJmm4KAFxBNtB71KumB0dTv4BBQZmQsLn4Kk1kKlQ0k1t+7ilGjifWSgpMhX/ALKCdz/4UA851+4J0vR04oKCTXTTikyTIdpUJJMh2nchk0AC5sPeUFJlICpNknITJUADZkmup9wQAmp7Bu60FE7mnBSczSw1TpGQ6Op3oaeS2/sAQUmshfXh1oSGitfepRo4k9pKAXc6/sCCiYqevqQEmumikudU2Fhv4lCS4ybbU/BAnMyGlyqTKQFSdPioSG+S2+gSjRMmZ1KCzAEygnc04blACfKd2Dcp0/R70FBmTKw13qk1kL68FCfNbKfclGAC59pQUkADUmw3pYTPaoBKbnX13BAC6ptoPeUFEzWw0UnMmVhc8VD5VBbU7+AVJlINvpw4lBSdBU93EoTIV/8AKlGg6k+slAPON+5BRO5pwQEmthpxU6Xo96Eknmt7TuQfU9N10UAAkAiBQTJUALjMimg95VIBNdLL56VB0dTv4BA6VBRoufcFSZSDRXuQmUmtFdOCUaNSSe0lAo0VufWTwQA3df2AIB5zr+wJ0vR70DpejpxQkmg7TuQkmg7TuSjQABXQfFAo0AAV0HxSXNBJvqfglGzJvqfcEAnU9g3cSgAEmZ7B7ylXUFtTvUnzqebqd/UsC2u5RsBkMSNl2WQ4WNzSGSyM5xP0TCPF2xOaZueNWgiWpmJIM+JIo0b66BfgcZl7Jg4vDc4TmDHhAz4zcuZ812l2lzp73ZjmeKjMcSRBDzDw7fRgw5M9i8hB1cMbl93YzCT/ALeFTq8pPp2Xk1xmFkLDw8KvX5S5SsiDq047LzQYzCganw8L8yfTsuAk3F4Th+vhfmXKKXQdXDG5cJzxmFJN/wBfC/MvqHicJFeAzE4d7z0WQ4sNx9TSuUOCAlpBBIIqCKS9SDrUzcZWaL7yhJ6Lb9y5wyTbnazI3MEHHRMThWyBwmPc6PBLdzC489v+Fw7VunZbbLJtp4DhAnh8whM5+JwMVwdEaLc+E+Q5zOMpjUCYmGTUaKCp9pQCU3Ov3cAgEpudfuTpVNtBv4lAkXVNhYe8pV1BbU+4JMuMh0dT7gkwJNaK6DdxKATKTWiu7dxKUaDqTfeSlGg6k+slANXX7kADznf6AJ0vR706Xo96Ezo3tO5AJJ8lvadyUaJAV0G88Uo0AC+g3oABMk11PwQUAi9yiCZqRLcEQQgmgoNePBJyk1orpwQk0AuUo0bz7SgUaN5PrJQDznX7ggHnOv7AnS9HTigdKvm6DehMyQO07kJJoO07ko0AAVNh7ygUaAAK6D4pINmTfU/BBJsyTXU+4IASZnsG7igATqewbutD5VB0dTvUPlUHR1O9R72Q2uJc1jWNL3vcQGsY0TLnE0ogwrlF2oibP5XCwmBi+DzPM+fDhPYZPw2HaJRIzSKhxmGsPEkdFaBJJJJNTUzXu7W56/aLPcfmALvowcMPgWun5GEhEhlDYuq48XFeCgK260t1ogKIl0C6vUnAJbrQLdaiJdAuv6sBjsbluMwuOwMZ0HFYWIIsGIy4cNCLEETBGoMtV/LwCtkHT2zmdQNosowGaQw1pisLMRBaZ+BxMPyYjDOsp1bwIOq9ckumB0dT7gtH8lmf/Qc0jZLHfLC5tIwJmjMbDFJemJt6w1bwJlJrRXQbhvKBMCTWisqcOJSjRO513kpRo3k33koB5zr9yAB5zr9ydL0e9Ol6PehJJ5re07kAmZ5re07ko0AC+g3oZNAAvpxQCUyTXX/RAAAmSa6lAJmZsLD3lACansHvKVdMC2p38AgswZysiUsNEQCQ2v8A2SoBdzr+wBWVZn/wp0vR04oHS9HTihJNB2nchJJkO07ko0AAV0CBRoAAqbD3lAA0Ek11PuCDyQSTXUoATU9g3daAASZnsG7iUPlUFtTvSrqDo6nehMvJbfuCATLyW39gCwHlOz8ZVkn6Mw8SWMznnwXyPlMwbZeGcZHzqMFKgu3LPXOhwmOc9zWtaHPe55AAa0TLnE0kFzTtbnsTaLPcfmALvowd9GwDXTHMwkIkMobF1XHi4oPAVslutRBbKIl0C6vBOAS3X3IFutREugXTgE4BWyBZREQfpBixoEWDHgvdDjQIjIsJ7aOZEYQ5rm8QV01s1ncDPsly/M2c0RI0PmYpjf8A08VD8mIyW6dRwI3rmK62NyV5+MBmsXJcQ+WFzWTsPzj5LMbDbSXpibesNQbvAPSdfuTpej3pV3o96Enot7TuQCSfJb2nclGgAX0G/ilGgAX0G9BSZdfU/BAlKZJrqUAJIJtoPeUAJkTbQe8pMuoLanfwCB0qC2p38AhMpNbfuQmXki/clGjeT6yUFAkiCdzc+xEAid7bt6hJJkO07kMzQdp3JRoAFzYIFGgACug+KSDQSb6n3BJBsyb6n3BAJ1PYPigAE1PYN3FQ+VQdHU7+pWfOoLanehPmtv3BAnLyW39gCUYOPtJSjRvJ9ZKjixjXxYjmtaxpc9ziA1jAJkkmkhqgwHlOz85Xkoy2C+WOzoPgu5prCwTZeGNP61GWqC7+qtE2617212fP2hz3H5gC76MHfRsA10xzMJCJDKGxdV5G9xXgoFlERAurwCdSW60C3WoiXQLpwCcArbrQLKIiAl0urwCBwC+4MWLAiwY0F7mRoMRkWE9tHMiMcHNcDvBC/NEHT2zWdw9oMly7MofNESND5mLa3/0sTD8mIyXXVvAhexRoAF9BvWj+SvaD6BmkbJo75YbNZOw8z5LMbDb5I/xjyesNW8AAJkmupQAJTJvqd3UgBNTbQe8oATU2Fh7yh8qYFtTv4BAnzqC2p38EJl5LRXuCEyk1t+5KNFbn1koFGjefaSgFec6/sAQDznX9gCnSv0dOKD6BnXTREmDQaIgEytc2CgAaCTfU+4K0EyVACTM9g3daAASZnsHvKGbqC2p39SHyqDo6nehMpNbKfsAQCZeS2/sASjBvJ9ZKUaOJ9ZKASm51+5AA851/YAsB5T9oP0Zkgy2A/m4vOS+CZHymYJkvDOMv61GCYqC7cs+lzpE9EWG/iVzryg5hHx+1edeFJ5mCiNy/DsJoyHAEiB1uLnf4kGKKIiBdXgE4BLdaBbr7lES6BdOATqVt1oFutREQEul1epA6lERAS6XRB+kKNGgRYMaC90OLBiMiwntMnMiMcHNcDvBXTWzOcwtocmy7NGloiRYYZiYbbQsVD8mI2XXUcCFzCtqcj+Oj/S89ysuP0eJhoeYNE6Miw4jYLiPSDhP0Qg3FPnTAtqd/AITKQbf2BCZSa2/sCUYOJ9ZKBRo4n1koAek68uwBAPOdf2BTpVrzdOKB05HzRYb1SSfJHad3AISTRvadyEhsgBXQIKABIBEAlczOpRAlMgnSylXUFtTv6kMzSw14pOXktv7AEAmXktv7AEo0cT6yUo0cfaSgHnOv7AgAGrnXl2AJV1TbQb+JTpVNtBv4lCS4yFtT7gghPOPNB0mTwstU7fcn+Z4/MI+dZJDZHfigx2NwfPayKIrQGmLBLyGkEAc4TnOonzpNyHazaduyuebNx4zHxMBjcJj8NjWMq9jWxYLmRmA3LZmk6glZFgNoNmsxhNjYLNcDHDgHECOxkUcHwohDx1EBBzu/ZTbFji07P5zMGXk4HEuHYWsI9qnivth+z2d/u7F/kXSoxmBNXYrDcB4aFT+JDjMC4y+l4bm6/r4Vf4kHNXivtfps/nf7uxf5FPFfbD9n87/d+L/IulzjcDZuKw26fh4VB/zJ9My9opisMf8A54Vf4kHNHivth+z+d/u/F/kQ7L7Yfs/ncv8A2/F/kXS4xmAFTi8NP+2hU/iT6ZgCZnFYaQNB4eF6z5SDmnxX2v02fzv93Yv8inivth+z2d/u7F/kXS5xuBNBi8NzdT4eF6ukhxuAAk3FYX7+FIfxIOaPFfa/9n87/d+L/Ih2X2w/Z/Ov3fi/yLpcYzANH+14Yn+2hV/iQYzATm7F4af9vCkP4kHNPivthps/nf7uxf5FPFfbD9n87/d2L/IulzjMAT/teG5v9vCr/EhxuBoBi8NxPh4VP4kHNHivtf8As/nf7vxf5E8V9sP2fzv93Yv8i6X+mYBopisN9/Cr/EgxmAFTi8NM6+HhfmQc0eK+2H7P53L/ANuxf5E8V9sP2fzv93Yv8i6WGMwBMzi8NIWHh4XrPlKnG4E0+l4YN1Ph4VeHSQc2wNkNtMQ9sOHkGahxMgY+FiQGdr44a32rcWwWx0fZjD4rEY18N2aY8Q2RGQjzoeFgMJcIYfq4mrtKAC03ZgcbgAJDFYX7+FT+JeJnG2WyuRwIsSPmGHj4gA8zCYOKyPiYj9GkMJDRxcQO5BkM2tBrMzlxnuVA851/8oWMbD5liM4yWJmuJpFxmZZlG5oM2wmGLzWw2k6NAAHVxWTVdfozpxQKu9HTiqSSZNtqd3AISSeaO07upCQ2QFzYe8oBIaABfQfFOiCSam59wQSaCSam59wQCZ5zuwbkFHONTTcEQGc5W70QCTQC/cpRo3n2kqkhonvtvKgHnOv7AEADznX9gCdKptoN/EpV1TbQb+JQkuo22p9wQCS7yRbU/BCeaAGipsPelGyaBXRJBomanXj1INQcsYPhtltT4LMv88BapW1uWOfh9ltJwcyp/jgLVNuvuQLdaiJdBb7kU4BW3WgWUREFS6XTqQFERBUupdEBERBU4lfthMJjMfiYGEwcCLiMTHdzIMGC0ue8yJMgNwmTuAnosm+rrlBIB/QzpGUv5ZgAa8PDTQYnfck1keO2H22y3DRcXi8njMw8FpfFfCi4aOWNFS5zYERzpDUyosbsg6A5MBPZHATsMXj6b/1qzYknyR2ndwWE8mEzsjgQNcXj5n/5VmxIaAAK6D3lAJDQAL6BKNEyam5SQbMk1Nz8EAJPOd2DcgAEnnO7BuU6fo6nenT9EXO/qVJ81t/YEH1Sw0RQCQRAkLnT2KVdU9HQb+JVImROw0+KhJdRttT7kAkuMhbU/BDJsmtvp/qhIbJrb6BKNEyZnfvQBJomTXUoAT5TuwbkAJ8p3YNynT9HvQai5Yw7wuyzwDzTDzJodKkw6AZTWp10NyhbPRtoMkIwcMxMwy2IcXhYbRN0VnN5sWC3iRIjeWgarnotcC4OBBBIINCCNCEEunAJwCtutAsoiICXS6vAIHUoiICXS6ICIiAicUugzzkwzPKcu2gjfT4kKC7F4F+FwkaMWtY2MYjH8wvdQc4AgGfDzlvhroZ8ovYZinlNkBwquS+pWbhqfWUHVOYZjlmXYXEYzMMTBg4SCxznmI9nl0PkNbOZJsALrlmM6E+NHfDZzIboj3Q4d+YwuJDexfEzQkk7pr+rLsvx2a43C4DAwnRcVioghwmN9Zc46NAmXHQBBvbkxDm7IZeZGcTFY9zOI8MWz9hWaiTQSTMm59wXn5LlkDJMpy3LIR5zcFh2Qi+UvCRKue+X+84k9q/vAJPOd2DcgoBPlO7BuSr7dHU71Onbo6neqT5rb+wIBNmtv3BKMG8n1kpRo3k+slAJTc6/sCCgG5NSiAk1sNEQQzNBTeUJDRJt9B8VSZSAFTb4qUaCTc3KBRoJJqb8epACfKd2DcgBJ5zuwbk6fo96CdP0e9Uk9FvbuCEnotvqdAlGiQqT6yUH4fSsO3FNwUz9Idhn4trf60NsRsJxHUSJ9Y3rFdouT3ZzP4kTGHwmBzCJN0XEYQN5kZ2+NBd5JPEEE6krHuU7NMzybNNjswy+MYWKgw8zkQAWva58DnMe00LTYj3iY+cFywYF0JgzPKMQ2M0DnOwEWG+E928Mjc1w6ucetB/IeRzFTPMz+CW6F2Be0y4jwp718jkcxhtn2H/BxPmr2Tyv7MkS/R2cdjcJ81Byv7MAUy3N5D/dwnzUHjfU5jJy/T2Hn/conzUPI7jBfPsP+CifNXsjle2YE/5tzetzzcLP/qp9b2zE5/o3N56eThKf/tQeP9TmNl/T2H4/yOJ81QcjmNNRn2Hl/conzV7J5XtmDfLc4/5cLXr/AFqfW/sz9m5uP8OE+ag8b6nMZMj9PYel/wCRxPmIeR3GU/n7DzNv5FE+YvZHK9swBTLc3l6OF+ag5XtmJk/o3N5n/dwvzUHjnkcxgFc+w8v7lE+an1OY37ew/wCDifNXsfW9swTM5bm9LDm4SX/VQ8r+zJp+jc34+ThPmoPGHI5jDbPsPT/gonzE+pzGTl+nsPP+5RPmr2frf2ZA/o3N5aeThfmoOV7ZgT/m3N+M24X5qDxjyO4wSnn2H3D+RRPmp9TmNArn2H/BxPmL2Pre2YnP9G5vPTycJTq/Wqnle2YMp5bm8r9HC/NQeMORzGGoz7Dy/uUT5iDkcxhJln2Hpf8AkUT5i9k8r+zMpfo3Nx1NwnzUHK9swBIZbm8h/u4X5qDyoXI6/wAI36Rn7SyYm2Bgjz3DWRfFkPUVsDZ/ZXZ/ZiE8ZfAccREaGx8XiCImJiiYPN5wAAFqAAU1NViY5XtmBM/o3NyTqW4T5q8bOuVvEx4MSDkuXnCxHgtGLxkRkWJDBF4cFo5gduJcepBtrDYrD4w4p0J/OGGxUbBvIqBFgyDxPgaHqX71dTzdTv6lhnJo6LG2VwkSK9z3xMbmMSK95Lnve6MSS5xrM6rNCfNbfuQCfNbf2BKNA1J9ZKUaKVJ9ZKAS8p1+5AAlNzr93Up0jM9HQb+JVALqno6A68ShJcSBQC59wQWc+xFQAKBEEJDalQAk853YNyspmZ0twXz0/R70Cr6eb3qk2a2+vAIT5rb9yUaABU6bygUaJCpPrJQCU3OvrwQCU3ONe7ggm6ptoN/EoNQcsZ/X7LHfBzL/ADwFqhbX5ZCPD7Lf2WZf54C1QgJdLq9SB1KIiB1pdLp1ICIiAnWit0C6nUnAIgKpxUvVAuiyDZTZvEbUZoMCyMIECFBdicXHLeeYcJrmskxsxNxJAFeOldnDkg2alM5lm+nnYUf/AMkGkVbLceO5IcsOFjuyvMsb9Ma1xgjGiA6BEcBMMJhsa4TtOvUVp17Hw3vZEaWvY5zHtNw5pkQUG/uTAnxRwIFzi8fXd+tWbUYKVJ9ZKwnkwMtkcDxxePkN/wCtWbASm5xr3BAAl5TjXuSRdU9HQb+JUq6p6IsN/Eqkl1BbU/BAJLqCwufcEJ5smtvoN3EoTKTQKm3xKUaCSam53lBQJdZuiCdzfduRBCC6mmvFCfNbeXqVJNhc67lKNFLn2lAowACp03koBKbnGvsCAS8p1+5OlU20HvKBIuqbaD3lQ+VQWFzv4BUzdQW1PuCEyk1tzYbuJQan5YsLEMLZnFtB8DDfjsK8yo18QQojBPiGu9S1FddQZ/kmBz/KsZleLJa2OA6FGaAXwY7DNkVo4G4nUEjVc657s/nOz2LfhMxw7mTc7wMdgLsPiGjzoMSUj1XGoCDyepREQEuiICIiAnFEugXTgFeCiArxUS6C3UREGR7IbTRNls1+m+BMfDR4LsNi4LXBr3Qy5rw6GTTnNIBE71FJzG0jytbGkAHD50KVH0fDer/660XbrU60G68w5XMhZhI36MwOYRMYWObAGLhwYUBriJB7yyI5xAvICu8XWlnvfFe+I9xc+I5z3uNy5xmSV83WX7H7FZltHiYMeNCiYfJYbw7E4p4LfDNaawsNO7jYmwveTXBtnk4wsXC7IZOYo5ro7sVimg3EOLGdzD2gA9qy2XOqejoN/WviDBhQoUGDChthwIENkKDDYJNbDY0Na0DcBQL9CS4yFtT8EAkkyFtT7kMhJrRXQe8oSBJrb6DdxKUaJm+p1JQJBomTMm51JQA9J3YNwQA9J19BoE6Xo96Cgzrp3okxYaIgEgC1TYb1AJTc6/cFZAVKgHOkTbQe8oEudIm2g38ShJdQdHU+4JVxIFtT7ghpJrRXQbuJQJgSa0V04cSlGjeT6yUo0Vub7yUA851+5B4ePz7C5ZneTZfjosODCzXC4oYaJEIawYuDEhyY5xoOcHSFbiXnL14+Hw2LhvgYqBBjQHUfCxENkRj+tkQEexal5Yz+v2WI/wDw5l/ngLCcBtptplsJsHCZzi2wWANZDjeDxDWNAkGsGIa6Q4BBvZ+x2xL3H+YcsmTN3NgNa0dQbIKHYzYgf/YcuJNh4L/VaXHKPyg/bB/CYH5KfWPygz/pg/hMD8pBujxM2IAmciy3j+p/1QbGbEmpyHLRuHge+q0v9Y/KD9sH8JgflJ9Y/KD9sH8JgfkoN0eJmxJNMhy2Wp8Frwqh2N2InIZDls/7G3XVaX+sflB+2D+EwPyUHKPyg/bB/CYH5KDdB2M2HaK5Dl33N/aqNi9iZTdkOWz/ALK3tWlvrH5Qftg/hMD8pPrH5Qftg/hMD8pBugbGbEmv6By3m6fqan2p4m7EkyGQ5bS58D/qtL/WPyg/bB/B4H5KDlH5Qftg/hMD8lBug7G7ECgyHLSdB4H/AFTxM2IAmciy3sg91Vpf6x+UH7YP4TA/JT6x+UH7YP4TA/KQbobsZsSanIctG4eB76oNjNiXGmQ5bzd/gb9VVpc8o/KD9sGv/CYH5SfWPyg3/TB/CYH5KDdB2N2JnIZDls9f1NB7UOxmxAH9A5cToPA39q0v9Y/KD9sH8Jgfkp9Y/KDP+mD+EwPykG7IGyWxuHcIrMiysPbIguw0N/NIrMCJMTXrxImHgQXxoz4cDDQIZc98RzYcKHDaKucXSaAFz4eUflB+2T+EwPyV5GabR7S5y0NzTM8ViYcw4QXPDIHOFneBhgQ58eag6G2ezhmf4LEZhB/2V+YY2DhXSIJw8F4hscQazdKdtV7JMpBoroPeVhPJgT4o4GVScXj/APqrNpBoJNzc70CjQSbm51JQCvOdfQbkArN3YNydL0e9BOl6PeqTXmt7TuQkz5re07ko0SArpxKCgACQRAN90QJTNbCwXySXTAsLn3BUzNLDU+5CZSa2+g3cSgEyk1oroN3FKNFak33kpRoJuT6yUAPSN+5AA851+5Ol6PenS9HvQkk81vadyDUHLJLw+y/9jmX+eAtULa/LGB4fZYaeBzL/ADwFqhAREQETil0C6dSdSICqcVLoF7oiICtutLdacSgcSpdLogK2WccmWU5TmufxhmMOFHbgsC/FwMPFAdDiRREhw+c9jqENBnKW7ct6fQsAZBuEwoAlMiBCpwHkoOU1F1JmGSZDmOFjYLGYDCvgxmuaZQobXsmOmx4EwRcELl+MxjI0aHDeIkNkSIxjxZ7WuIDh13Qb85MCBsjgj/xeP/6qzYDzndg3LCeTADxRwJOmLx8vvVmvS9HvQOl6PeqSei2+p3IT5rb6nclGgAXNt5KBRoAFzYakpKUyb68OAQCUyb6n4JIuMzbQfFBQSa23Ik5zlZEAnQXP/dVKNG8m+8lUkCu/1lQDznX7kADznX9gCdL0e9Ol6PehJPkt7TuQCSfJb2nchk0AAV0G/rSjRIXNhvQCUyb6n3BBrflYyiPi8ny/NITS92VR4jcQAKjD4rmtL6aBzW/83BaSXWUSFDxEOLCjw2xIMVj4cSFEaHMfDeC1zXtNCCLhae2j5KsdDjRsVs25sfDOLnDA4iIGR4JNebCixDzHNGk3A9d0GrVeKyI7D7cNcWnIsfMX5rWOHYWukp4k7cfYOYfdj4oMdunBZF4k7cfYOYfdj4p4k7b/AGDmH3Y+KDHVeJWQ+JO3H2DmH3Y+KeJO3GuRZh92Pigx26LIvEnbj7BzD7sfFPEnbjTIcw+7HxQY6rbrWQ+JO3H2DmH3Y+KeJO3GuQ5h92Pigx7iVLrIvEnbj7BzD7sfFPEnbj7BzD7sfFBjqtlkPiTtx9g5h92PiniTtv8AYOYfdj4oPHwOOx+WYqBjcDiImHxUAkwosIyc2YkRuIIoQRWaykcpu3wH9IwPwWE90Ned4k7cTrkWYfdj4p4k7cfYOYfdj4oP6Mft/tvmWFj4OPmXNgR2lkYYeBh4D3sIkWF8NgdI61WLAEkNaCSSBS5J0CyWDsHt1Ge2G3I8U0m7oxhQWAcXRHgLZGx/JrCymPAzTOokHE42CREwuGgzdhsPEBmIjnOA5zxpQAGtTItDKdj8pjZNs5k2Xx2lsdkF0fFNPSbHjvMZzD6M+b2L3yfNbfU7kJM5NvqdyUaJAVNt5KBRoAFzbiUFJk31O7gEAlMk114cEq6ptoPigCbqm2g95SZdMC2p38AnSoLan3BCZSa0CenDig+qWGiKAS4nUogSE5nS3BTpej3qkE3sPaoSSea3tO5AJmZDtO5KNAAvoN6UaABfQb+tJSmSa6n4IAEpkmupQCdTbQe8oAXVPYPeUq6YFtT8EDpEgdHU7+AQmXktv3ITKQbfuSjBxPrJQPJaJ6k9pKAXc6/sCAHpOv7AE6dfNHtQQDnVI8nQb1TXyR2ndwQkkyb2n4ITzQAL6D4oFG0aK6D3lJBoJNzc/BKNmSam59wQAnyndg3IAEzzndg3KdP0dTv4J07dHXiqT5rb9wQD/VbKfsCeS0WmT6yUowbyfWSgEpucay9Q4IAAHlOv3KAc4zI8nQb+JSrqno6DfxKpJdQWFz8EE6VBSVz7lTJsg0V0HvKEyk1orpw4lKNBJubnUoEg0TNTqd/UgHnO7BuQCs3dg3JV3o96CdL0e9Uk9FvadyEnot7TuSjQAL6byUCjQAL6bygEpkmuvDqQCU3E114cAlXVNtB7ygSLqm2g95TpUFtT7gky4yFtT7ghMpNArpw60AmUgBX2Ab0o0VqT7SlGgzqT6yUA851+5BRO5vu3IgM66aIgpmoAAJBEQAJEm5KSmQTpYIiAQT1appIIiAAAkqzN9OCIgETvbcqbSFERBAABIIBKZ1NyiIEpmZ7EInTTVEQXSQUAAt2oiABUk1KFsyJ2GiIgEE8FZSEgiIIBLrNykqzPZwREAifV3oZykKIiABISCAam5REAiZrYaIRPqREF0pRQADrNyiIEqzN9OCETvbdvREFsiIg//9k=" vertex="1" parent="1">
                    <mxGeometry x="-640" y="1277.57" width="100" height="175" as="geometry"/>
                </mxCell>
                <mxCell id="117" value="" style="shape=image;verticalLabelPosition=bottom;verticalAlign=top;imageAspect=0;image=data:image/jpeg,/9j/4AAQSkZJRgABAQAAAQABAAD/2wBDAAsJCQcJCQcJCQkJCwkJCQkJCQsJCwsMCwsLDA0QDBEODQ4MEhkSJRodJR0ZHxwpKRYlNzU2GioyPi0pMBk7IRP/2wBDAQcICAsJCxULCxUsHRkdLCwsLCwsLCwsLCwsLCwsLCwsLCwsLCwsLCwsLCwsLCwsLCwsLCwsLCwsLCwsLCwsLCz/wAARCAEGAQYDASIAAhEBAxEB/8QAHAABAQADAQEBAQAAAAAAAAAAAAEGBwgFAgME/8QAUxAAAQIEAwMGCgYFCQcDBQAAAQACAxEhMQQFQQZRYQcSMnGBsRMWIkJykaHB0dMUF1WTlNIVI1aVoiQlNVJzdIKy4TRiZJKz8PFDdYMzRVOjw//EABQBAQAAAAAAAAAAAAAAAAAAAAD/xAAUEQEAAAAAAAAAAAAAAAAAAAAA/9oADAMBAAIRAxEAPwDbRJmAO07kJlxJsEJlxJsFAObNzjXU+4ILOQmT1oCSJmm4KAFxBNtB71KumB0dTv4BBQZmQsLn4Kk1kKlQ0k1t+7ilGjifWSgpMhX/ALKCdz/4UA851+4J0vR04oKCTXTTikyTIdpUJJMh2nchk0AC5sPeUFJlICpNknITJUADZkmup9wQAmp7Bu60FE7mnBSczSw1TpGQ6Op3oaeS2/sAQUmshfXh1oSGitfepRo4k9pKAXc6/sCCiYqevqQEmumikudU2Fhv4lCS4ybbU/BAnMyGlyqTKQFSdPioSG+S2+gSjRMmZ1KCzAEygnc04blACfKd2Dcp0/R70FBmTKw13qk1kL68FCfNbKfclGAC59pQUkADUmw3pYTPaoBKbnX13BAC6ptoPeUFEzWw0UnMmVhc8VD5VBbU7+AVJlINvpw4lBSdBU93EoTIV/8AKlGg6k+slAPON+5BRO5pwQEmthpxU6Xo96Eknmt7TuQfU9N10UAAkAiBQTJUALjMimg95VIBNdLL56VB0dTv4BA6VBRoufcFSZSDRXuQmUmtFdOCUaNSSe0lAo0VufWTwQA3df2AIB5zr+wJ0vR70DpejpxQkmg7TuQkmg7TuSjQABXQfFAo0AAV0HxSXNBJvqfglGzJvqfcEAnU9g3cSgAEmZ7B7ylXUFtTvUnzqebqd/UsC2u5RsBkMSNl2WQ4WNzSGSyM5xP0TCPF2xOaZueNWgiWpmJIM+JIo0b66BfgcZl7Jg4vDc4TmDHhAz4zcuZ812l2lzp73ZjmeKjMcSRBDzDw7fRgw5M9i8hB1cMbl93YzCT/ALeFTq8pPp2Xk1xmFkLDw8KvX5S5SsiDq047LzQYzCganw8L8yfTsuAk3F4Th+vhfmXKKXQdXDG5cJzxmFJN/wBfC/MvqHicJFeAzE4d7z0WQ4sNx9TSuUOCAlpBBIIqCKS9SDrUzcZWaL7yhJ6Lb9y5wyTbnazI3MEHHRMThWyBwmPc6PBLdzC489v+Fw7VunZbbLJtp4DhAnh8whM5+JwMVwdEaLc+E+Q5zOMpjUCYmGTUaKCp9pQCU3Ov3cAgEpudfuTpVNtBv4lAkXVNhYe8pV1BbU+4JMuMh0dT7gkwJNaK6DdxKATKTWiu7dxKUaDqTfeSlGg6k+slANXX7kADznf6AJ0vR706Xo96Ezo3tO5AJJ8lvadyUaJAV0G88Uo0AC+g3oABMk11PwQUAi9yiCZqRLcEQQgmgoNePBJyk1orpwQk0AuUo0bz7SgUaN5PrJQDznX7ggHnOv7AnS9HTigdKvm6DehMyQO07kJJoO07ko0AAVNh7ygUaAAK6D4pINmTfU/BBJsyTXU+4IASZnsG7igATqewbutD5VB0dTvUPlUHR1O9R72Q2uJc1jWNL3vcQGsY0TLnE0ogwrlF2oibP5XCwmBi+DzPM+fDhPYZPw2HaJRIzSKhxmGsPEkdFaBJJJJNTUzXu7W56/aLPcfmALvowcMPgWun5GEhEhlDYuq48XFeCgK260t1ogKIl0C6vUnAJbrQLdaiJdAuv6sBjsbluMwuOwMZ0HFYWIIsGIy4cNCLEETBGoMtV/LwCtkHT2zmdQNosowGaQw1pisLMRBaZ+BxMPyYjDOsp1bwIOq9ckumB0dT7gtH8lmf/Qc0jZLHfLC5tIwJmjMbDFJemJt6w1bwJlJrRXQbhvKBMCTWisqcOJSjRO513kpRo3k33koB5zr9yAB5zr9ydL0e9Ol6PehJJ5re07kAmZ5re07ko0AC+g3oZNAAvpxQCUyTXX/RAAAmSa6lAJmZsLD3lACansHvKVdMC2p38AgswZysiUsNEQCQ2v8A2SoBdzr+wBWVZn/wp0vR04oHS9HTihJNB2nchJJkO07ko0AAV0CBRoAAqbD3lAA0Ek11PuCDyQSTXUoATU9g3daAASZnsG7iUPlUFtTvSrqDo6nehMvJbfuCATLyW39gCwHlOz8ZVkn6Mw8SWMznnwXyPlMwbZeGcZHzqMFKgu3LPXOhwmOc9zWtaHPe55AAa0TLnE0kFzTtbnsTaLPcfmALvowd9GwDXTHMwkIkMobF1XHi4oPAVslutRBbKIl0C6vBOAS3X3IFutREugXTgE4BWyBZREQfpBixoEWDHgvdDjQIjIsJ7aOZEYQ5rm8QV01s1ncDPsly/M2c0RI0PmYpjf8A08VD8mIyW6dRwI3rmK62NyV5+MBmsXJcQ+WFzWTsPzj5LMbDbSXpibesNQbvAPSdfuTpej3pV3o96Enot7TuQCSfJb2nclGgAX0G/ilGgAX0G9BSZdfU/BAlKZJrqUAJIJtoPeUAJkTbQe8pMuoLanfwCB0qC2p38AhMpNbfuQmXki/clGjeT6yUFAkiCdzc+xEAid7bt6hJJkO07kMzQdp3JRoAFzYIFGgACug+KSDQSb6n3BJBsyb6n3BAJ1PYPigAE1PYN3FQ+VQdHU7+pWfOoLanehPmtv3BAnLyW39gCUYOPtJSjRvJ9ZKjixjXxYjmtaxpc9ziA1jAJkkmkhqgwHlOz85Xkoy2C+WOzoPgu5prCwTZeGNP61GWqC7+qtE2617212fP2hz3H5gC76MHfRsA10xzMJCJDKGxdV5G9xXgoFlERAurwCdSW60C3WoiXQLpwCcArbrQLKIiAl0urwCBwC+4MWLAiwY0F7mRoMRkWE9tHMiMcHNcDvBC/NEHT2zWdw9oMly7MofNESND5mLa3/0sTD8mIyXXVvAhexRoAF9BvWj+SvaD6BmkbJo75YbNZOw8z5LMbDb5I/xjyesNW8AAJkmupQAJTJvqd3UgBNTbQe8oATU2Fh7yh8qYFtTv4BAnzqC2p38EJl5LRXuCEyk1t+5KNFbn1koFGjefaSgFec6/sAQDznX9gCnSv0dOKD6BnXTREmDQaIgEytc2CgAaCTfU+4K0EyVACTM9g3daAASZnsHvKGbqC2p39SHyqDo6nehMpNbKfsAQCZeS2/sASjBvJ9ZKUaOJ9ZKASm51+5AA851/YAsB5T9oP0Zkgy2A/m4vOS+CZHymYJkvDOMv61GCYqC7cs+lzpE9EWG/iVzryg5hHx+1edeFJ5mCiNy/DsJoyHAEiB1uLnf4kGKKIiBdXgE4BLdaBbr7lES6BdOATqVt1oFutREQEul1epA6lERAS6XRB+kKNGgRYMaC90OLBiMiwntMnMiMcHNcDvBXTWzOcwtocmy7NGloiRYYZiYbbQsVD8mI2XXUcCFzCtqcj+Oj/S89ysuP0eJhoeYNE6Miw4jYLiPSDhP0Qg3FPnTAtqd/AITKQbf2BCZSa2/sCUYOJ9ZKBRo4n1koAek68uwBAPOdf2BTpVrzdOKB05HzRYb1SSfJHad3AISTRvadyEhsgBXQIKABIBEAlczOpRAlMgnSylXUFtTv6kMzSw14pOXktv7AEAmXktv7AEo0cT6yUo0cfaSgHnOv7AgAGrnXl2AJV1TbQb+JTpVNtBv4lCS4yFtT7gghPOPNB0mTwstU7fcn+Z4/MI+dZJDZHfigx2NwfPayKIrQGmLBLyGkEAc4TnOonzpNyHazaduyuebNx4zHxMBjcJj8NjWMq9jWxYLmRmA3LZmk6glZFgNoNmsxhNjYLNcDHDgHECOxkUcHwohDx1EBBzu/ZTbFji07P5zMGXk4HEuHYWsI9qnivth+z2d/u7F/kXSoxmBNXYrDcB4aFT+JDjMC4y+l4bm6/r4Vf4kHNXivtfps/nf7uxf5FPFfbD9n87/d+L/IulzjcDZuKw26fh4VB/zJ9My9opisMf8A54Vf4kHNHivth+z+d/u/F/kQ7L7Yfs/ncv8A2/F/kXS4xmAFTi8NP+2hU/iT6ZgCZnFYaQNB4eF6z5SDmnxX2v02fzv93Yv8inivth+z2d/u7F/kXS5xuBNBi8NzdT4eF6ukhxuAAk3FYX7+FIfxIOaPFfa/9n87/d+L/Ih2X2w/Z/Ov3fi/yLpcYzANH+14Yn+2hV/iQYzATm7F4af9vCkP4kHNPivthps/nf7uxf5FPFfbD9n87/d2L/IulzjMAT/teG5v9vCr/EhxuBoBi8NxPh4VP4kHNHivtf8As/nf7vxf5E8V9sP2fzv93Yv8i6X+mYBopisN9/Cr/EgxmAFTi8NM6+HhfmQc0eK+2H7P53L/ANuxf5E8V9sP2fzv93Yv8i6WGMwBMzi8NIWHh4XrPlKnG4E0+l4YN1Ph4VeHSQc2wNkNtMQ9sOHkGahxMgY+FiQGdr44a32rcWwWx0fZjD4rEY18N2aY8Q2RGQjzoeFgMJcIYfq4mrtKAC03ZgcbgAJDFYX7+FT+JeJnG2WyuRwIsSPmGHj4gA8zCYOKyPiYj9GkMJDRxcQO5BkM2tBrMzlxnuVA851/8oWMbD5liM4yWJmuJpFxmZZlG5oM2wmGLzWw2k6NAAHVxWTVdfozpxQKu9HTiqSSZNtqd3AISSeaO07upCQ2QFzYe8oBIaABfQfFOiCSam59wQSaCSam59wQCZ5zuwbkFHONTTcEQGc5W70QCTQC/cpRo3n2kqkhonvtvKgHnOv7AEADznX9gCdKptoN/EpV1TbQb+JQkuo22p9wQCS7yRbU/BCeaAGipsPelGyaBXRJBomanXj1INQcsYPhtltT4LMv88BapW1uWOfh9ltJwcyp/jgLVNuvuQLdaiJdBb7kU4BW3WgWUREFS6XTqQFERBUupdEBERBU4lfthMJjMfiYGEwcCLiMTHdzIMGC0ue8yJMgNwmTuAnosm+rrlBIB/QzpGUv5ZgAa8PDTQYnfck1keO2H22y3DRcXi8njMw8FpfFfCi4aOWNFS5zYERzpDUyosbsg6A5MBPZHATsMXj6b/1qzYknyR2ndwWE8mEzsjgQNcXj5n/5VmxIaAAK6D3lAJDQAL6BKNEyam5SQbMk1Nz8EAJPOd2DcgAEnnO7BuU6fo6nenT9EXO/qVJ81t/YEH1Sw0RQCQRAkLnT2KVdU9HQb+JVImROw0+KhJdRttT7kAkuMhbU/BDJsmtvp/qhIbJrb6BKNEyZnfvQBJomTXUoAT5TuwbkAJ8p3YNynT9HvQai5Yw7wuyzwDzTDzJodKkw6AZTWp10NyhbPRtoMkIwcMxMwy2IcXhYbRN0VnN5sWC3iRIjeWgarnotcC4OBBBIINCCNCEEunAJwCtutAsoiICXS6vAIHUoiICXS6ICIiAicUugzzkwzPKcu2gjfT4kKC7F4F+FwkaMWtY2MYjH8wvdQc4AgGfDzlvhroZ8ovYZinlNkBwquS+pWbhqfWUHVOYZjlmXYXEYzMMTBg4SCxznmI9nl0PkNbOZJsALrlmM6E+NHfDZzIboj3Q4d+YwuJDexfEzQkk7pr+rLsvx2a43C4DAwnRcVioghwmN9Zc46NAmXHQBBvbkxDm7IZeZGcTFY9zOI8MWz9hWaiTQSTMm59wXn5LlkDJMpy3LIR5zcFh2Qi+UvCRKue+X+84k9q/vAJPOd2DcgoBPlO7BuSr7dHU71Onbo6neqT5rb+wIBNmtv3BKMG8n1kpRo3k+slAJTc6/sCCgG5NSiAk1sNEQQzNBTeUJDRJt9B8VSZSAFTb4qUaCTc3KBRoJJqb8epACfKd2DcgBJ5zuwbk6fo96CdP0e9Uk9FvbuCEnotvqdAlGiQqT6yUH4fSsO3FNwUz9Idhn4trf60NsRsJxHUSJ9Y3rFdouT3ZzP4kTGHwmBzCJN0XEYQN5kZ2+NBd5JPEEE6krHuU7NMzybNNjswy+MYWKgw8zkQAWva58DnMe00LTYj3iY+cFywYF0JgzPKMQ2M0DnOwEWG+E928Mjc1w6ucetB/IeRzFTPMz+CW6F2Be0y4jwp718jkcxhtn2H/BxPmr2Tyv7MkS/R2cdjcJ81Byv7MAUy3N5D/dwnzUHjfU5jJy/T2Hn/conzUPI7jBfPsP+CifNXsjle2YE/5tzetzzcLP/qp9b2zE5/o3N56eThKf/tQeP9TmNl/T2H4/yOJ81QcjmNNRn2Hl/conzV7J5XtmDfLc4/5cLXr/AFqfW/sz9m5uP8OE+ag8b6nMZMj9PYel/wCRxPmIeR3GU/n7DzNv5FE+YvZHK9swBTLc3l6OF+ag5XtmJk/o3N5n/dwvzUHjnkcxgFc+w8v7lE+an1OY37ew/wCDifNXsfW9swTM5bm9LDm4SX/VQ8r+zJp+jc34+ThPmoPGHI5jDbPsPT/gonzE+pzGTl+nsPP+5RPmr2frf2ZA/o3N5aeThfmoOV7ZgT/m3N+M24X5qDxjyO4wSnn2H3D+RRPmp9TmNArn2H/BxPmL2Pre2YnP9G5vPTycJTq/Wqnle2YMp5bm8r9HC/NQeMORzGGoz7Dy/uUT5iDkcxhJln2Hpf8AkUT5i9k8r+zMpfo3Nx1NwnzUHK9swBIZbm8h/u4X5qDyoXI6/wAI36Rn7SyYm2Bgjz3DWRfFkPUVsDZ/ZXZ/ZiE8ZfAccREaGx8XiCImJiiYPN5wAAFqAAU1NViY5XtmBM/o3NyTqW4T5q8bOuVvEx4MSDkuXnCxHgtGLxkRkWJDBF4cFo5gduJcepBtrDYrD4w4p0J/OGGxUbBvIqBFgyDxPgaHqX71dTzdTv6lhnJo6LG2VwkSK9z3xMbmMSK95Lnve6MSS5xrM6rNCfNbfuQCfNbf2BKNA1J9ZKUaKVJ9ZKAS8p1+5AAlNzr93Up0jM9HQb+JVALqno6A68ShJcSBQC59wQWc+xFQAKBEEJDalQAk853YNyspmZ0twXz0/R70Cr6eb3qk2a2+vAIT5rb9yUaABU6bygUaJCpPrJQCU3OvrwQCU3ONe7ggm6ptoN/EoNQcsZ/X7LHfBzL/ADwFqhbX5ZCPD7Lf2WZf54C1QgJdLq9SB1KIiB1pdLp1ICIiAnWit0C6nUnAIgKpxUvVAuiyDZTZvEbUZoMCyMIECFBdicXHLeeYcJrmskxsxNxJAFeOldnDkg2alM5lm+nnYUf/AMkGkVbLceO5IcsOFjuyvMsb9Ma1xgjGiA6BEcBMMJhsa4TtOvUVp17Hw3vZEaWvY5zHtNw5pkQUG/uTAnxRwIFzi8fXd+tWbUYKVJ9ZKwnkwMtkcDxxePkN/wCtWbASm5xr3BAAl5TjXuSRdU9HQb+JUq6p6IsN/Eqkl1BbU/BAJLqCwufcEJ5smtvoN3EoTKTQKm3xKUaCSam53lBQJdZuiCdzfduRBCC6mmvFCfNbeXqVJNhc67lKNFLn2lAowACp03koBKbnGvsCAS8p1+5OlU20HvKBIuqbaD3lQ+VQWFzv4BUzdQW1PuCEyk1tzYbuJQan5YsLEMLZnFtB8DDfjsK8yo18QQojBPiGu9S1FddQZ/kmBz/KsZleLJa2OA6FGaAXwY7DNkVo4G4nUEjVc657s/nOz2LfhMxw7mTc7wMdgLsPiGjzoMSUj1XGoCDyepREQEuiICIiAnFEugXTgFeCiArxUS6C3UREGR7IbTRNls1+m+BMfDR4LsNi4LXBr3Qy5rw6GTTnNIBE71FJzG0jytbGkAHD50KVH0fDer/660XbrU60G68w5XMhZhI36MwOYRMYWObAGLhwYUBriJB7yyI5xAvICu8XWlnvfFe+I9xc+I5z3uNy5xmSV83WX7H7FZltHiYMeNCiYfJYbw7E4p4LfDNaawsNO7jYmwveTXBtnk4wsXC7IZOYo5ro7sVimg3EOLGdzD2gA9qy2XOqejoN/WviDBhQoUGDChthwIENkKDDYJNbDY0Na0DcBQL9CS4yFtT8EAkkyFtT7kMhJrRXQe8oSBJrb6DdxKUaJm+p1JQJBomTMm51JQA9J3YNwQA9J19BoE6Xo96Cgzrp3okxYaIgEgC1TYb1AJTc6/cFZAVKgHOkTbQe8oEudIm2g38ShJdQdHU+4JVxIFtT7ghpJrRXQbuJQJgSa0V04cSlGjeT6yUo0Vub7yUA851+5B4ePz7C5ZneTZfjosODCzXC4oYaJEIawYuDEhyY5xoOcHSFbiXnL14+Hw2LhvgYqBBjQHUfCxENkRj+tkQEexal5Yz+v2WI/wDw5l/ngLCcBtptplsJsHCZzi2wWANZDjeDxDWNAkGsGIa6Q4BBvZ+x2xL3H+YcsmTN3NgNa0dQbIKHYzYgf/YcuJNh4L/VaXHKPyg/bB/CYH5KfWPygz/pg/hMD8pBujxM2IAmciy3j+p/1QbGbEmpyHLRuHge+q0v9Y/KD9sH8JgflJ9Y/KD9sH8JgfkoN0eJmxJNMhy2Wp8Frwqh2N2InIZDls/7G3XVaX+sflB+2D+EwPyUHKPyg/bB/CYH5KDdB2M2HaK5Dl33N/aqNi9iZTdkOWz/ALK3tWlvrH5Qftg/hMD8pPrH5Qftg/hMD8pBugbGbEmv6By3m6fqan2p4m7EkyGQ5bS58D/qtL/WPyg/bB/B4H5KDlH5Qftg/hMD8lBug7G7ECgyHLSdB4H/AFTxM2IAmciy3sg91Vpf6x+UH7YP4TA/JT6x+UH7YP4TA/KQbobsZsSanIctG4eB76oNjNiXGmQ5bzd/gb9VVpc8o/KD9sGv/CYH5SfWPyg3/TB/CYH5KDdB2N2JnIZDls9f1NB7UOxmxAH9A5cToPA39q0v9Y/KD9sH8Jgfkp9Y/KDP+mD+EwPykG7IGyWxuHcIrMiysPbIguw0N/NIrMCJMTXrxImHgQXxoz4cDDQIZc98RzYcKHDaKucXSaAFz4eUflB+2T+EwPyV5GabR7S5y0NzTM8ViYcw4QXPDIHOFneBhgQ58eag6G2ezhmf4LEZhB/2V+YY2DhXSIJw8F4hscQazdKdtV7JMpBoroPeVhPJgT4o4GVScXj/APqrNpBoJNzc70CjQSbm51JQCvOdfQbkArN3YNydL0e9BOl6PeqTXmt7TuQkz5re07ko0SArpxKCgACQRAN90QJTNbCwXySXTAsLn3BUzNLDU+5CZSa2+g3cSgEyk1oroN3FKNFak33kpRoJuT6yUAPSN+5AA851+5Ol6PenS9HvQkk81vadyDUHLJLw+y/9jmX+eAtULa/LGB4fZYaeBzL/ADwFqhAREQETil0C6dSdSICqcVLoF7oiICtutLdacSgcSpdLogK2WccmWU5TmufxhmMOFHbgsC/FwMPFAdDiRREhw+c9jqENBnKW7ct6fQsAZBuEwoAlMiBCpwHkoOU1F1JmGSZDmOFjYLGYDCvgxmuaZQobXsmOmx4EwRcELl+MxjI0aHDeIkNkSIxjxZ7WuIDh13Qb85MCBsjgj/xeP/6qzYDzndg3LCeTADxRwJOmLx8vvVmvS9HvQOl6PeqSei2+p3IT5rb6nclGgAXNt5KBRoAFzYakpKUyb68OAQCUyb6n4JIuMzbQfFBQSa23Ik5zlZEAnQXP/dVKNG8m+8lUkCu/1lQDznX7kADznX9gCdL0e9Ol6PehJPkt7TuQCSfJb2nchk0AAV0G/rSjRIXNhvQCUyb6n3BBrflYyiPi8ny/NITS92VR4jcQAKjD4rmtL6aBzW/83BaSXWUSFDxEOLCjw2xIMVj4cSFEaHMfDeC1zXtNCCLhae2j5KsdDjRsVs25sfDOLnDA4iIGR4JNebCixDzHNGk3A9d0GrVeKyI7D7cNcWnIsfMX5rWOHYWukp4k7cfYOYfdj4oMdunBZF4k7cfYOYfdj4p4k7b/AGDmH3Y+KDHVeJWQ+JO3H2DmH3Y+KeJO3GuRZh92Pigx26LIvEnbj7BzD7sfFPEnbjTIcw+7HxQY6rbrWQ+JO3H2DmH3Y+KeJO3GuQ5h92Pigx7iVLrIvEnbj7BzD7sfFPEnbj7BzD7sfFBjqtlkPiTtx9g5h92PiniTtv8AYOYfdj4oPHwOOx+WYqBjcDiImHxUAkwosIyc2YkRuIIoQRWaykcpu3wH9IwPwWE90Ned4k7cTrkWYfdj4p4k7cfYOYfdj4oP6Mft/tvmWFj4OPmXNgR2lkYYeBh4D3sIkWF8NgdI61WLAEkNaCSSBS5J0CyWDsHt1Ge2G3I8U0m7oxhQWAcXRHgLZGx/JrCymPAzTOokHE42CREwuGgzdhsPEBmIjnOA5zxpQAGtTItDKdj8pjZNs5k2Xx2lsdkF0fFNPSbHjvMZzD6M+b2L3yfNbfU7kJM5NvqdyUaJAVNt5KBRoAFzbiUFJk31O7gEAlMk114cEq6ptoPigCbqm2g95SZdMC2p38AnSoLan3BCZSa0CenDig+qWGiKAS4nUogSE5nS3BTpej3qkE3sPaoSSea3tO5AJmZDtO5KNAAvoN6UaABfQb+tJSmSa6n4IAEpkmupQCdTbQe8oAXVPYPeUq6YFtT8EDpEgdHU7+AQmXktv3ITKQbfuSjBxPrJQPJaJ6k9pKAXc6/sCAHpOv7AE6dfNHtQQDnVI8nQb1TXyR2ndwQkkyb2n4ITzQAL6D4oFG0aK6D3lJBoJNzc/BKNmSam59wQAnyndg3IAEzzndg3KdP0dTv4J07dHXiqT5rb9wQD/VbKfsCeS0WmT6yUowbyfWSgEpucay9Q4IAAHlOv3KAc4zI8nQb+JSrqno6DfxKpJdQWFz8EE6VBSVz7lTJsg0V0HvKEyk1orpw4lKNBJubnUoEg0TNTqd/UgHnO7BuQCs3dg3JV3o96CdL0e9Uk9FvadyEnot7TuSjQAL6byUCjQAL6bygEpkmuvDqQCU3E114cAlXVNtB7ygSLqm2g95TpUFtT7gky4yFtT7ghMpNArpw60AmUgBX2Ab0o0VqT7SlGgzqT6yUA851+5BRO5vu3IgM66aIgpmoAAJBEQAJEm5KSmQTpYIiAQT1appIIiAAAkqzN9OCIgETvbcqbSFERBAABIIBKZ1NyiIEpmZ7EInTTVEQXSQUAAt2oiABUk1KFsyJ2GiIgEE8FZSEgiIIBLrNykqzPZwREAifV3oZykKIiABISCAam5REAiZrYaIRPqREF0pRQADrNyiIEqzN9OCETvbdvREFsiIg//9k=" vertex="1" parent="1">
                    <mxGeometry x="-475" y="1277.57" width="100" height="175" as="geometry"/>
                </mxCell>
                <mxCell id="118" value="" style="shape=image;verticalLabelPosition=bottom;verticalAlign=top;imageAspect=0;image=data:image/jpeg,/9j/4AAQSkZJRgABAQAAAQABAAD/2wBDAAsJCQcJCQcJCQkJCwkJCQkJCQsJCwsMCwsLDA0QDBEODQ4MEhkSJRodJR0ZHxwpKRYlNzU2GioyPi0pMBk7IRP/2wBDAQcICAsJCxULCxUsHRkdLCwsLCwsLCwsLCwsLCwsLCwsLCwsLCwsLCwsLCwsLCwsLCwsLCwsLCwsLCwsLCwsLCz/wAARCAEGAQYDASIAAhEBAxEB/8QAHAABAQADAQEBAQAAAAAAAAAAAAEGBwgFAgME/8QAUxAAAQIEAwMGCgYFCQcDBQAAAQACAxEhMQQFQQZRYQcSMnGBsRMWIkJykaHB0dMUF1WTlNIVI1aVoiQlNVJzdIKy4TRiZJKz8PFDdYMzRVOjw//EABQBAQAAAAAAAAAAAAAAAAAAAAD/xAAUEQEAAAAAAAAAAAAAAAAAAAAA/9oADAMBAAIRAxEAPwDbRJmAO07kJlxJsEJlxJsFAObNzjXU+4ILOQmT1oCSJmm4KAFxBNtB71KumB0dTv4BBQZmQsLn4Kk1kKlQ0k1t+7ilGjifWSgpMhX/ALKCdz/4UA851+4J0vR04oKCTXTTikyTIdpUJJMh2nchk0AC5sPeUFJlICpNknITJUADZkmup9wQAmp7Bu60FE7mnBSczSw1TpGQ6Op3oaeS2/sAQUmshfXh1oSGitfepRo4k9pKAXc6/sCCiYqevqQEmumikudU2Fhv4lCS4ybbU/BAnMyGlyqTKQFSdPioSG+S2+gSjRMmZ1KCzAEygnc04blACfKd2Dcp0/R70FBmTKw13qk1kL68FCfNbKfclGAC59pQUkADUmw3pYTPaoBKbnX13BAC6ptoPeUFEzWw0UnMmVhc8VD5VBbU7+AVJlINvpw4lBSdBU93EoTIV/8AKlGg6k+slAPON+5BRO5pwQEmthpxU6Xo96Eknmt7TuQfU9N10UAAkAiBQTJUALjMimg95VIBNdLL56VB0dTv4BA6VBRoufcFSZSDRXuQmUmtFdOCUaNSSe0lAo0VufWTwQA3df2AIB5zr+wJ0vR70DpejpxQkmg7TuQkmg7TuSjQABXQfFAo0AAV0HxSXNBJvqfglGzJvqfcEAnU9g3cSgAEmZ7B7ylXUFtTvUnzqebqd/UsC2u5RsBkMSNl2WQ4WNzSGSyM5xP0TCPF2xOaZueNWgiWpmJIM+JIo0b66BfgcZl7Jg4vDc4TmDHhAz4zcuZ812l2lzp73ZjmeKjMcSRBDzDw7fRgw5M9i8hB1cMbl93YzCT/ALeFTq8pPp2Xk1xmFkLDw8KvX5S5SsiDq047LzQYzCganw8L8yfTsuAk3F4Th+vhfmXKKXQdXDG5cJzxmFJN/wBfC/MvqHicJFeAzE4d7z0WQ4sNx9TSuUOCAlpBBIIqCKS9SDrUzcZWaL7yhJ6Lb9y5wyTbnazI3MEHHRMThWyBwmPc6PBLdzC489v+Fw7VunZbbLJtp4DhAnh8whM5+JwMVwdEaLc+E+Q5zOMpjUCYmGTUaKCp9pQCU3Ov3cAgEpudfuTpVNtBv4lAkXVNhYe8pV1BbU+4JMuMh0dT7gkwJNaK6DdxKATKTWiu7dxKUaDqTfeSlGg6k+slANXX7kADznf6AJ0vR706Xo96Ezo3tO5AJJ8lvadyUaJAV0G88Uo0AC+g3oABMk11PwQUAi9yiCZqRLcEQQgmgoNePBJyk1orpwQk0AuUo0bz7SgUaN5PrJQDznX7ggHnOv7AnS9HTigdKvm6DehMyQO07kJJoO07ko0AAVNh7ygUaAAK6D4pINmTfU/BBJsyTXU+4IASZnsG7igATqewbutD5VB0dTvUPlUHR1O9R72Q2uJc1jWNL3vcQGsY0TLnE0ogwrlF2oibP5XCwmBi+DzPM+fDhPYZPw2HaJRIzSKhxmGsPEkdFaBJJJJNTUzXu7W56/aLPcfmALvowcMPgWun5GEhEhlDYuq48XFeCgK260t1ogKIl0C6vUnAJbrQLdaiJdAuv6sBjsbluMwuOwMZ0HFYWIIsGIy4cNCLEETBGoMtV/LwCtkHT2zmdQNosowGaQw1pisLMRBaZ+BxMPyYjDOsp1bwIOq9ckumB0dT7gtH8lmf/Qc0jZLHfLC5tIwJmjMbDFJemJt6w1bwJlJrRXQbhvKBMCTWisqcOJSjRO513kpRo3k33koB5zr9yAB5zr9ydL0e9Ol6PehJJ5re07kAmZ5re07ko0AC+g3oZNAAvpxQCUyTXX/RAAAmSa6lAJmZsLD3lACansHvKVdMC2p38AgswZysiUsNEQCQ2v8A2SoBdzr+wBWVZn/wp0vR04oHS9HTihJNB2nchJJkO07ko0AAV0CBRoAAqbD3lAA0Ek11PuCDyQSTXUoATU9g3daAASZnsG7iUPlUFtTvSrqDo6nehMvJbfuCATLyW39gCwHlOz8ZVkn6Mw8SWMznnwXyPlMwbZeGcZHzqMFKgu3LPXOhwmOc9zWtaHPe55AAa0TLnE0kFzTtbnsTaLPcfmALvowd9GwDXTHMwkIkMobF1XHi4oPAVslutRBbKIl0C6vBOAS3X3IFutREugXTgE4BWyBZREQfpBixoEWDHgvdDjQIjIsJ7aOZEYQ5rm8QV01s1ncDPsly/M2c0RI0PmYpjf8A08VD8mIyW6dRwI3rmK62NyV5+MBmsXJcQ+WFzWTsPzj5LMbDbSXpibesNQbvAPSdfuTpej3pV3o96Enot7TuQCSfJb2nclGgAX0G/ilGgAX0G9BSZdfU/BAlKZJrqUAJIJtoPeUAJkTbQe8pMuoLanfwCB0qC2p38AhMpNbfuQmXki/clGjeT6yUFAkiCdzc+xEAid7bt6hJJkO07kMzQdp3JRoAFzYIFGgACug+KSDQSb6n3BJBsyb6n3BAJ1PYPigAE1PYN3FQ+VQdHU7+pWfOoLanehPmtv3BAnLyW39gCUYOPtJSjRvJ9ZKjixjXxYjmtaxpc9ziA1jAJkkmkhqgwHlOz85Xkoy2C+WOzoPgu5prCwTZeGNP61GWqC7+qtE2617212fP2hz3H5gC76MHfRsA10xzMJCJDKGxdV5G9xXgoFlERAurwCdSW60C3WoiXQLpwCcArbrQLKIiAl0urwCBwC+4MWLAiwY0F7mRoMRkWE9tHMiMcHNcDvBC/NEHT2zWdw9oMly7MofNESND5mLa3/0sTD8mIyXXVvAhexRoAF9BvWj+SvaD6BmkbJo75YbNZOw8z5LMbDb5I/xjyesNW8AAJkmupQAJTJvqd3UgBNTbQe8oATU2Fh7yh8qYFtTv4BAnzqC2p38EJl5LRXuCEyk1t+5KNFbn1koFGjefaSgFec6/sAQDznX9gCnSv0dOKD6BnXTREmDQaIgEytc2CgAaCTfU+4K0EyVACTM9g3daAASZnsHvKGbqC2p39SHyqDo6nehMpNbKfsAQCZeS2/sASjBvJ9ZKUaOJ9ZKASm51+5AA851/YAsB5T9oP0Zkgy2A/m4vOS+CZHymYJkvDOMv61GCYqC7cs+lzpE9EWG/iVzryg5hHx+1edeFJ5mCiNy/DsJoyHAEiB1uLnf4kGKKIiBdXgE4BLdaBbr7lES6BdOATqVt1oFutREQEul1epA6lERAS6XRB+kKNGgRYMaC90OLBiMiwntMnMiMcHNcDvBXTWzOcwtocmy7NGloiRYYZiYbbQsVD8mI2XXUcCFzCtqcj+Oj/S89ysuP0eJhoeYNE6Miw4jYLiPSDhP0Qg3FPnTAtqd/AITKQbf2BCZSa2/sCUYOJ9ZKBRo4n1koAek68uwBAPOdf2BTpVrzdOKB05HzRYb1SSfJHad3AISTRvadyEhsgBXQIKABIBEAlczOpRAlMgnSylXUFtTv6kMzSw14pOXktv7AEAmXktv7AEo0cT6yUo0cfaSgHnOv7AgAGrnXl2AJV1TbQb+JTpVNtBv4lCS4yFtT7gghPOPNB0mTwstU7fcn+Z4/MI+dZJDZHfigx2NwfPayKIrQGmLBLyGkEAc4TnOonzpNyHazaduyuebNx4zHxMBjcJj8NjWMq9jWxYLmRmA3LZmk6glZFgNoNmsxhNjYLNcDHDgHECOxkUcHwohDx1EBBzu/ZTbFji07P5zMGXk4HEuHYWsI9qnivth+z2d/u7F/kXSoxmBNXYrDcB4aFT+JDjMC4y+l4bm6/r4Vf4kHNXivtfps/nf7uxf5FPFfbD9n87/d+L/IulzjcDZuKw26fh4VB/zJ9My9opisMf8A54Vf4kHNHivth+z+d/u/F/kQ7L7Yfs/ncv8A2/F/kXS4xmAFTi8NP+2hU/iT6ZgCZnFYaQNB4eF6z5SDmnxX2v02fzv93Yv8inivth+z2d/u7F/kXS5xuBNBi8NzdT4eF6ukhxuAAk3FYX7+FIfxIOaPFfa/9n87/d+L/Ih2X2w/Z/Ov3fi/yLpcYzANH+14Yn+2hV/iQYzATm7F4af9vCkP4kHNPivthps/nf7uxf5FPFfbD9n87/d2L/IulzjMAT/teG5v9vCr/EhxuBoBi8NxPh4VP4kHNHivtf8As/nf7vxf5E8V9sP2fzv93Yv8i6X+mYBopisN9/Cr/EgxmAFTi8NM6+HhfmQc0eK+2H7P53L/ANuxf5E8V9sP2fzv93Yv8i6WGMwBMzi8NIWHh4XrPlKnG4E0+l4YN1Ph4VeHSQc2wNkNtMQ9sOHkGahxMgY+FiQGdr44a32rcWwWx0fZjD4rEY18N2aY8Q2RGQjzoeFgMJcIYfq4mrtKAC03ZgcbgAJDFYX7+FT+JeJnG2WyuRwIsSPmGHj4gA8zCYOKyPiYj9GkMJDRxcQO5BkM2tBrMzlxnuVA851/8oWMbD5liM4yWJmuJpFxmZZlG5oM2wmGLzWw2k6NAAHVxWTVdfozpxQKu9HTiqSSZNtqd3AISSeaO07upCQ2QFzYe8oBIaABfQfFOiCSam59wQSaCSam59wQCZ5zuwbkFHONTTcEQGc5W70QCTQC/cpRo3n2kqkhonvtvKgHnOv7AEADznX9gCdKptoN/EpV1TbQb+JQkuo22p9wQCS7yRbU/BCeaAGipsPelGyaBXRJBomanXj1INQcsYPhtltT4LMv88BapW1uWOfh9ltJwcyp/jgLVNuvuQLdaiJdBb7kU4BW3WgWUREFS6XTqQFERBUupdEBERBU4lfthMJjMfiYGEwcCLiMTHdzIMGC0ue8yJMgNwmTuAnosm+rrlBIB/QzpGUv5ZgAa8PDTQYnfck1keO2H22y3DRcXi8njMw8FpfFfCi4aOWNFS5zYERzpDUyosbsg6A5MBPZHATsMXj6b/1qzYknyR2ndwWE8mEzsjgQNcXj5n/5VmxIaAAK6D3lAJDQAL6BKNEyam5SQbMk1Nz8EAJPOd2DcgAEnnO7BuU6fo6nenT9EXO/qVJ81t/YEH1Sw0RQCQRAkLnT2KVdU9HQb+JVImROw0+KhJdRttT7kAkuMhbU/BDJsmtvp/qhIbJrb6BKNEyZnfvQBJomTXUoAT5TuwbkAJ8p3YNynT9HvQai5Yw7wuyzwDzTDzJodKkw6AZTWp10NyhbPRtoMkIwcMxMwy2IcXhYbRN0VnN5sWC3iRIjeWgarnotcC4OBBBIINCCNCEEunAJwCtutAsoiICXS6vAIHUoiICXS6ICIiAicUugzzkwzPKcu2gjfT4kKC7F4F+FwkaMWtY2MYjH8wvdQc4AgGfDzlvhroZ8ovYZinlNkBwquS+pWbhqfWUHVOYZjlmXYXEYzMMTBg4SCxznmI9nl0PkNbOZJsALrlmM6E+NHfDZzIboj3Q4d+YwuJDexfEzQkk7pr+rLsvx2a43C4DAwnRcVioghwmN9Zc46NAmXHQBBvbkxDm7IZeZGcTFY9zOI8MWz9hWaiTQSTMm59wXn5LlkDJMpy3LIR5zcFh2Qi+UvCRKue+X+84k9q/vAJPOd2DcgoBPlO7BuSr7dHU71Onbo6neqT5rb+wIBNmtv3BKMG8n1kpRo3k+slAJTc6/sCCgG5NSiAk1sNEQQzNBTeUJDRJt9B8VSZSAFTb4qUaCTc3KBRoJJqb8epACfKd2DcgBJ5zuwbk6fo96CdP0e9Uk9FvbuCEnotvqdAlGiQqT6yUH4fSsO3FNwUz9Idhn4trf60NsRsJxHUSJ9Y3rFdouT3ZzP4kTGHwmBzCJN0XEYQN5kZ2+NBd5JPEEE6krHuU7NMzybNNjswy+MYWKgw8zkQAWva58DnMe00LTYj3iY+cFywYF0JgzPKMQ2M0DnOwEWG+E928Mjc1w6ucetB/IeRzFTPMz+CW6F2Be0y4jwp718jkcxhtn2H/BxPmr2Tyv7MkS/R2cdjcJ81Byv7MAUy3N5D/dwnzUHjfU5jJy/T2Hn/conzUPI7jBfPsP+CifNXsjle2YE/5tzetzzcLP/qp9b2zE5/o3N56eThKf/tQeP9TmNl/T2H4/yOJ81QcjmNNRn2Hl/conzV7J5XtmDfLc4/5cLXr/AFqfW/sz9m5uP8OE+ag8b6nMZMj9PYel/wCRxPmIeR3GU/n7DzNv5FE+YvZHK9swBTLc3l6OF+ag5XtmJk/o3N5n/dwvzUHjnkcxgFc+w8v7lE+an1OY37ew/wCDifNXsfW9swTM5bm9LDm4SX/VQ8r+zJp+jc34+ThPmoPGHI5jDbPsPT/gonzE+pzGTl+nsPP+5RPmr2frf2ZA/o3N5aeThfmoOV7ZgT/m3N+M24X5qDxjyO4wSnn2H3D+RRPmp9TmNArn2H/BxPmL2Pre2YnP9G5vPTycJTq/Wqnle2YMp5bm8r9HC/NQeMORzGGoz7Dy/uUT5iDkcxhJln2Hpf8AkUT5i9k8r+zMpfo3Nx1NwnzUHK9swBIZbm8h/u4X5qDyoXI6/wAI36Rn7SyYm2Bgjz3DWRfFkPUVsDZ/ZXZ/ZiE8ZfAccREaGx8XiCImJiiYPN5wAAFqAAU1NViY5XtmBM/o3NyTqW4T5q8bOuVvEx4MSDkuXnCxHgtGLxkRkWJDBF4cFo5gduJcepBtrDYrD4w4p0J/OGGxUbBvIqBFgyDxPgaHqX71dTzdTv6lhnJo6LG2VwkSK9z3xMbmMSK95Lnve6MSS5xrM6rNCfNbfuQCfNbf2BKNA1J9ZKUaKVJ9ZKAS8p1+5AAlNzr93Up0jM9HQb+JVALqno6A68ShJcSBQC59wQWc+xFQAKBEEJDalQAk853YNyspmZ0twXz0/R70Cr6eb3qk2a2+vAIT5rb9yUaABU6bygUaJCpPrJQCU3OvrwQCU3ONe7ggm6ptoN/EoNQcsZ/X7LHfBzL/ADwFqhbX5ZCPD7Lf2WZf54C1QgJdLq9SB1KIiB1pdLp1ICIiAnWit0C6nUnAIgKpxUvVAuiyDZTZvEbUZoMCyMIECFBdicXHLeeYcJrmskxsxNxJAFeOldnDkg2alM5lm+nnYUf/AMkGkVbLceO5IcsOFjuyvMsb9Ma1xgjGiA6BEcBMMJhsa4TtOvUVp17Hw3vZEaWvY5zHtNw5pkQUG/uTAnxRwIFzi8fXd+tWbUYKVJ9ZKwnkwMtkcDxxePkN/wCtWbASm5xr3BAAl5TjXuSRdU9HQb+JUq6p6IsN/Eqkl1BbU/BAJLqCwufcEJ5smtvoN3EoTKTQKm3xKUaCSam53lBQJdZuiCdzfduRBCC6mmvFCfNbeXqVJNhc67lKNFLn2lAowACp03koBKbnGvsCAS8p1+5OlU20HvKBIuqbaD3lQ+VQWFzv4BUzdQW1PuCEyk1tzYbuJQan5YsLEMLZnFtB8DDfjsK8yo18QQojBPiGu9S1FddQZ/kmBz/KsZleLJa2OA6FGaAXwY7DNkVo4G4nUEjVc657s/nOz2LfhMxw7mTc7wMdgLsPiGjzoMSUj1XGoCDyepREQEuiICIiAnFEugXTgFeCiArxUS6C3UREGR7IbTRNls1+m+BMfDR4LsNi4LXBr3Qy5rw6GTTnNIBE71FJzG0jytbGkAHD50KVH0fDer/660XbrU60G68w5XMhZhI36MwOYRMYWObAGLhwYUBriJB7yyI5xAvICu8XWlnvfFe+I9xc+I5z3uNy5xmSV83WX7H7FZltHiYMeNCiYfJYbw7E4p4LfDNaawsNO7jYmwveTXBtnk4wsXC7IZOYo5ro7sVimg3EOLGdzD2gA9qy2XOqejoN/WviDBhQoUGDChthwIENkKDDYJNbDY0Na0DcBQL9CS4yFtT8EAkkyFtT7kMhJrRXQe8oSBJrb6DdxKUaJm+p1JQJBomTMm51JQA9J3YNwQA9J19BoE6Xo96Cgzrp3okxYaIgEgC1TYb1AJTc6/cFZAVKgHOkTbQe8oEudIm2g38ShJdQdHU+4JVxIFtT7ghpJrRXQbuJQJgSa0V04cSlGjeT6yUo0Vub7yUA851+5B4ePz7C5ZneTZfjosODCzXC4oYaJEIawYuDEhyY5xoOcHSFbiXnL14+Hw2LhvgYqBBjQHUfCxENkRj+tkQEexal5Yz+v2WI/wDw5l/ngLCcBtptplsJsHCZzi2wWANZDjeDxDWNAkGsGIa6Q4BBvZ+x2xL3H+YcsmTN3NgNa0dQbIKHYzYgf/YcuJNh4L/VaXHKPyg/bB/CYH5KfWPygz/pg/hMD8pBujxM2IAmciy3j+p/1QbGbEmpyHLRuHge+q0v9Y/KD9sH8JgflJ9Y/KD9sH8JgfkoN0eJmxJNMhy2Wp8Frwqh2N2InIZDls/7G3XVaX+sflB+2D+EwPyUHKPyg/bB/CYH5KDdB2M2HaK5Dl33N/aqNi9iZTdkOWz/ALK3tWlvrH5Qftg/hMD8pPrH5Qftg/hMD8pBugbGbEmv6By3m6fqan2p4m7EkyGQ5bS58D/qtL/WPyg/bB/B4H5KDlH5Qftg/hMD8lBug7G7ECgyHLSdB4H/AFTxM2IAmciy3sg91Vpf6x+UH7YP4TA/JT6x+UH7YP4TA/KQbobsZsSanIctG4eB76oNjNiXGmQ5bzd/gb9VVpc8o/KD9sGv/CYH5SfWPyg3/TB/CYH5KDdB2N2JnIZDls9f1NB7UOxmxAH9A5cToPA39q0v9Y/KD9sH8Jgfkp9Y/KDP+mD+EwPykG7IGyWxuHcIrMiysPbIguw0N/NIrMCJMTXrxImHgQXxoz4cDDQIZc98RzYcKHDaKucXSaAFz4eUflB+2T+EwPyV5GabR7S5y0NzTM8ViYcw4QXPDIHOFneBhgQ58eag6G2ezhmf4LEZhB/2V+YY2DhXSIJw8F4hscQazdKdtV7JMpBoroPeVhPJgT4o4GVScXj/APqrNpBoJNzc70CjQSbm51JQCvOdfQbkArN3YNydL0e9BOl6PeqTXmt7TuQkz5re07ko0SArpxKCgACQRAN90QJTNbCwXySXTAsLn3BUzNLDU+5CZSa2+g3cSgEyk1oroN3FKNFak33kpRoJuT6yUAPSN+5AA851+5Ol6PenS9HvQkk81vadyDUHLJLw+y/9jmX+eAtULa/LGB4fZYaeBzL/ADwFqhAREQETil0C6dSdSICqcVLoF7oiICtutLdacSgcSpdLogK2WccmWU5TmufxhmMOFHbgsC/FwMPFAdDiRREhw+c9jqENBnKW7ct6fQsAZBuEwoAlMiBCpwHkoOU1F1JmGSZDmOFjYLGYDCvgxmuaZQobXsmOmx4EwRcELl+MxjI0aHDeIkNkSIxjxZ7WuIDh13Qb85MCBsjgj/xeP/6qzYDzndg3LCeTADxRwJOmLx8vvVmvS9HvQOl6PeqSei2+p3IT5rb6nclGgAXNt5KBRoAFzYakpKUyb68OAQCUyb6n4JIuMzbQfFBQSa23Ik5zlZEAnQXP/dVKNG8m+8lUkCu/1lQDznX7kADznX9gCdL0e9Ol6PehJPkt7TuQCSfJb2nchk0AAV0G/rSjRIXNhvQCUyb6n3BBrflYyiPi8ny/NITS92VR4jcQAKjD4rmtL6aBzW/83BaSXWUSFDxEOLCjw2xIMVj4cSFEaHMfDeC1zXtNCCLhae2j5KsdDjRsVs25sfDOLnDA4iIGR4JNebCixDzHNGk3A9d0GrVeKyI7D7cNcWnIsfMX5rWOHYWukp4k7cfYOYfdj4oMdunBZF4k7cfYOYfdj4p4k7b/AGDmH3Y+KDHVeJWQ+JO3H2DmH3Y+KeJO3GuRZh92Pigx26LIvEnbj7BzD7sfFPEnbjTIcw+7HxQY6rbrWQ+JO3H2DmH3Y+KeJO3GuQ5h92Pigx7iVLrIvEnbj7BzD7sfFPEnbj7BzD7sfFBjqtlkPiTtx9g5h92PiniTtv8AYOYfdj4oPHwOOx+WYqBjcDiImHxUAkwosIyc2YkRuIIoQRWaykcpu3wH9IwPwWE90Ned4k7cTrkWYfdj4p4k7cfYOYfdj4oP6Mft/tvmWFj4OPmXNgR2lkYYeBh4D3sIkWF8NgdI61WLAEkNaCSSBS5J0CyWDsHt1Ge2G3I8U0m7oxhQWAcXRHgLZGx/JrCymPAzTOokHE42CREwuGgzdhsPEBmIjnOA5zxpQAGtTItDKdj8pjZNs5k2Xx2lsdkF0fFNPSbHjvMZzD6M+b2L3yfNbfU7kJM5NvqdyUaJAVNt5KBRoAFzbiUFJk31O7gEAlMk114cEq6ptoPigCbqm2g95SZdMC2p38AnSoLan3BCZSa0CenDig+qWGiKAS4nUogSE5nS3BTpej3qkE3sPaoSSea3tO5AJmZDtO5KNAAvoN6UaABfQb+tJSmSa6n4IAEpkmupQCdTbQe8oAXVPYPeUq6YFtT8EDpEgdHU7+AQmXktv3ITKQbfuSjBxPrJQPJaJ6k9pKAXc6/sCAHpOv7AE6dfNHtQQDnVI8nQb1TXyR2ndwQkkyb2n4ITzQAL6D4oFG0aK6D3lJBoJNzc/BKNmSam59wQAnyndg3IAEzzndg3KdP0dTv4J07dHXiqT5rb9wQD/VbKfsCeS0WmT6yUowbyfWSgEpucay9Q4IAAHlOv3KAc4zI8nQb+JSrqno6DfxKpJdQWFz8EE6VBSVz7lTJsg0V0HvKEyk1orpw4lKNBJubnUoEg0TNTqd/UgHnO7BuQCs3dg3JV3o96CdL0e9Uk9FvadyEnot7TuSjQAL6byUCjQAL6bygEpkmuvDqQCU3E114cAlXVNtB7ygSLqm2g95TpUFtT7gky4yFtT7ghMpNArpw60AmUgBX2Ab0o0VqT7SlGgzqT6yUA851+5BRO5vu3IgM66aIgpmoAAJBEQAJEm5KSmQTpYIiAQT1appIIiAAAkqzN9OCIgETvbcqbSFERBAABIIBKZ1NyiIEpmZ7EInTTVEQXSQUAAt2oiABUk1KFsyJ2GiIgEE8FZSEgiIIBLrNykqzPZwREAifV3oZykKIiABISCAam5REAiZrYaIRPqREF0pRQADrNyiIEqzN9OCETvbdvREFsiIg//9k=" vertex="1" parent="1">
                    <mxGeometry x="-292" y="1277.57" width="100" height="175" as="geometry"/>
                </mxCell>
                <mxCell id="119" value="&lt;font style=&quot;font-size: 19px;&quot;&gt;Node 1&lt;/font&gt;" style="text;html=1;strokeColor=none;fillColor=none;align=center;verticalAlign=middle;whiteSpace=wrap;rounded=0;" vertex="1" parent="1">
                    <mxGeometry x="-630" y="1462.57" width="70" height="30" as="geometry"/>
                </mxCell>
                <mxCell id="120" value="&lt;font style=&quot;font-size: 19px;&quot;&gt;Node 2&lt;/font&gt;" style="text;html=1;strokeColor=none;fillColor=none;align=center;verticalAlign=middle;whiteSpace=wrap;rounded=0;" vertex="1" parent="1">
                    <mxGeometry x="-460" y="1462.57" width="70" height="30" as="geometry"/>
                </mxCell>
                <mxCell id="121" value="&lt;font style=&quot;font-size: 19px;&quot;&gt;Node 3&lt;/font&gt;" style="text;html=1;strokeColor=none;fillColor=none;align=center;verticalAlign=middle;whiteSpace=wrap;rounded=0;" vertex="1" parent="1">
                    <mxGeometry x="-277" y="1462.57" width="70" height="30" as="geometry"/>
                </mxCell>
                <mxCell id="122" value="" style="endArrow=classic;html=1;fontSize=19;exitX=0.5;exitY=1;exitDx=0;exitDy=0;" edge="1" parent="1" source="119">
                    <mxGeometry width="50" height="50" relative="1" as="geometry">
                        <mxPoint x="-480" y="1522.57" as="sourcePoint"/>
                        <mxPoint x="-595" y="1532.57" as="targetPoint"/>
                    </mxGeometry>
                </mxCell>
                <mxCell id="123" value="" style="endArrow=classic;html=1;fontSize=19;exitX=0.5;exitY=1;exitDx=0;exitDy=0;entryX=0.17;entryY=0.681;entryDx=0;entryDy=0;entryPerimeter=0;" edge="1" parent="1">
                    <mxGeometry width="50" height="50" relative="1" as="geometry">
                        <mxPoint x="-423" y="1492.57" as="sourcePoint"/>
                        <mxPoint x="-422.79999999999995" y="1532.6399999999996" as="targetPoint"/>
                    </mxGeometry>
                </mxCell>
                <mxCell id="124" value="" style="endArrow=classic;html=1;fontSize=19;exitX=0.5;exitY=1;exitDx=0;exitDy=0;entryX=0.17;entryY=0.681;entryDx=0;entryDy=0;entryPerimeter=0;" edge="1" parent="1">
                    <mxGeometry width="50" height="50" relative="1" as="geometry">
                        <mxPoint x="-245" y="1496.57" as="sourcePoint"/>
                        <mxPoint x="-244.79999999999995" y="1536.6399999999996" as="targetPoint"/>
                    </mxGeometry>
                </mxCell>
                <mxCell id="125" value="Shard 1" style="rounded=0;whiteSpace=wrap;html=1;fontSize=19;fillColor=#60a917;fontColor=#ffffff;strokeColor=#2D7600;" vertex="1" parent="1">
                    <mxGeometry x="-650" y="1542.57" width="120" height="40" as="geometry"/>
                </mxCell>
                <mxCell id="126" value="Shard 2" style="rounded=0;whiteSpace=wrap;html=1;fontSize=19;fillColor=#1ba1e2;fontColor=#ffffff;strokeColor=#006EAF;" vertex="1" parent="1">
                    <mxGeometry x="-483" y="1543.57" width="120" height="40" as="geometry"/>
                </mxCell>
                <mxCell id="127" value="Shard 3" style="rounded=0;whiteSpace=wrap;html=1;fontSize=19;fillColor=#d80073;fontColor=#ffffff;strokeColor=#A50040;" vertex="1" parent="1">
                    <mxGeometry x="-295" y="1541.57" width="120" height="40" as="geometry"/>
                </mxCell>
                <mxCell id="128" value="Replica 2" style="rounded=0;whiteSpace=wrap;html=1;fontSize=19;fillColor=#1ba1e2;fontColor=#ffffff;strokeColor=#006EAF;" vertex="1" parent="1">
                    <mxGeometry x="-650" y="1602.57" width="120" height="40" as="geometry"/>
                </mxCell>
                <mxCell id="129" value="Replica&amp;nbsp; 3" style="rounded=0;whiteSpace=wrap;html=1;fontSize=19;fillColor=#d80073;fontColor=#ffffff;strokeColor=#A50040;" vertex="1" parent="1">
                    <mxGeometry x="-650" y="1662.57" width="120" height="40" as="geometry"/>
                </mxCell>
                <mxCell id="130" value="Replica 1" style="rounded=0;whiteSpace=wrap;html=1;fontSize=19;fillColor=#60a917;fontColor=#ffffff;strokeColor=#2D7600;" vertex="1" parent="1">
                    <mxGeometry x="-475" y="1602.57" width="120" height="40" as="geometry"/>
                </mxCell>
                <mxCell id="131" value="Replica 1" style="rounded=0;whiteSpace=wrap;html=1;fontSize=19;fillColor=#60a917;fontColor=#ffffff;strokeColor=#2D7600;" vertex="1" parent="1">
                    <mxGeometry x="-295" y="1602.57" width="120" height="40" as="geometry"/>
                </mxCell>
                <mxCell id="132" value="Replica 2" style="rounded=0;whiteSpace=wrap;html=1;fontSize=19;fillColor=#1ba1e2;fontColor=#ffffff;strokeColor=#006EAF;" vertex="1" parent="1">
                    <mxGeometry x="-295" y="1662.57" width="120" height="40" as="geometry"/>
                </mxCell>
                <mxCell id="133" value="Replica&amp;nbsp; 3" style="rounded=0;whiteSpace=wrap;html=1;fontSize=19;fillColor=#d80073;fontColor=#ffffff;strokeColor=#A50040;" vertex="1" parent="1">
                    <mxGeometry x="-475" y="1662.57" width="120" height="40" as="geometry"/>
                </mxCell>
                <mxCell id="134" value="" style="shape=image;verticalLabelPosition=bottom;verticalAlign=top;imageAspect=0;image=data:image/jpeg,/9j/4AAQSkZJRgABAQAAAQABAAD/2wBDAAsJCQcJCQcJCQkJCwkJCQkJCQsJCwsMCwsLDA0QDBEODQ4MEhkSJRodJR0ZHxwpKRYlNzU2GioyPi0pMBk7IRP/2wBDAQcICAsJCxULCxUsHRkdLCwsLCwsLCwsLCwsLCwsLCwsLCwsLCwsLCwsLCwsLCwsLCwsLCwsLCwsLCwsLCwsLCz/wAARCADqAX4DASIAAhEBAxEB/8QAHAABAAMBAQEBAQAAAAAAAAAAAAEGBwUEAwII/8QAVBAAAQMDAgIECAUODAQHAAAAAQACAwQFEQYhEjEHE0FRFCJhcYGRkqEWMlKx0RUXIzZCVFVicnR1lLTBJTM0NVNzk7Kz0tPwY4Ki4SRERYOj1PH/xAAbAQEBAAMBAQEAAAAAAAAAAAAAAQQFBgIDB//EADARAQABAwIDBgYABwAAAAAAAAABAgMEBREhMaESExQiQVEGFTJSYYEWIzORsdHh/9oADAMBAAIRAxEAPwDW903REDdN0RA3TdEQN03REDdN0RA3TdEQN03REDdN0RA3TdEQN03REDdN0RA3TdEQN03REDdN0RA3TdEQN03REDdN0RA3TdEQN03REDdN0RA3TdEQN03REDdN0RA3TdEQFKhEBSoRBKhEQSoREEooRBKhEQFKhEEooRAUqEQFKhEEqERBKKEQFKhM9qbgpXyM0DTh0sYPcXtHzlBNA44EsZPcHtP7147yj3Xsz7PqijIReonfkgiIqJRQiCVCIgKVCIJRQiApUIglQiIJUIiCUUIgKVCIClQiCVCIglQiIJRQiCVCIgKVCIJRQiApUIgKVCIJUIiCN18aippqVnWTytY3kM83HuaBuV5bjcoqCPGA+oeCY4+zu4n+T/fmqc89RVSulneXPPf8UDuaOwBabP1OjG3oo41f4ZmPizd808lhnvErsinYGN7HyYc4+UNGy50s9RNvLLI7yFx4fQBsvBFMWkNd8Q9/Nq9eVwmZm5V2r+ZXO3T+zcW7Nu39MIwO3CY7sKUWs3nnu+3CPR9I5p4iDHLIz8lxx6ivfBd52ECdgkby4mgNf58clzEWZj5+RjTvbrmP3wfKuzbuc4WqnqaeobxRPB7xycPODuvv3qoRySQvEkTy145EfMR3KwUNeypHA/DZmjdudneVq7jTNboypi3d8tfSWpyMOq15qeMOgihF0bASoREBSoRBKKEQFKhEEqERBKhEQSihEBERARFKCEREBERARFKCEUqEBERARSiCEREBERBC81ZVxUVPJO/cjDY2Z+O8/Fb9K9OQubcbY+4PiLql0ccTSGsawEcTju4knnyH/wCrGyJuU257qPM924pmqO3yVSaaWolfNK4ue8kuJ5eQNHcOxfNWL4Nt+/H/ANk3/Mnwbb9+P/sm/wCZcfVpWZVMzMcZ/MN1GZZp4RPBXV6aeT7gnOBlp8ncuz8G2/fj/wCyb/mT4OAEEVj9iDtE3/Mvjc0bKrp27PWF8ba93ORdg2Vv3w70Rj6U+oo++XewPpWD8hzvt6w9eNte7joux9RB98u9gfSp+ojfvl39m395V+RZ329YPG2vdxv97L70kNRPMzwfLSwhxl7I/p8y68dmpG46x0kne0kNafQ36V0I444mhkbWtaBgBoAC2WD8PXoriu/PZiPSJ4se9nUbbUQ/Q5AHnjdSmEXcxG3BpxFKhUEREBEUoIREQEREBERAREQEREBERAREQEREBERAREQEREBERAREQEREHjuVZHbbfca+UAso6WepLSccfVsLgzOO3kszHSxW4H8B0/L79f8A6StnSFO6DSl4AODOaWnz5JJ2Z+ZYSitK+uxW/gOn/XX/AOkn12K38B0/66//AElmqIuzSvrsVv4Dp/11/wDpJ9dit/AdP+uyf6SzVEk2bFbtfVFfStqPqZCw9ZJG5gqHuALTzyWr2fDOo/B0f9s7/Ks402/NNWs+RUMd7TAP3LurpsXCx7tqmuad5lweoanl4+TVbor4R+Fq+GdT+D4/7d3+Veim1jA5zW1dI+JpOOOJ/WhvnaQHYVMUj/fesirTcaY27PWWFTreZE7zXv8AqGswTwVMTJoXtfE8Ascw5BC+qoWla+SGuFC532CrD+BvY2ZrS/LfOAc+ZXwdvqXNZWNONc7uf07fT8yMyz3kRx5SlERYzYCIiAiIgIiICIiAiIgIiICIiAiIgIiICIiAiIgIiICIiAiIgIiICIiAiIgpvSS1ztK1hHJlVQvd5utx+9Ygv6C1hSOrtM6hp2jLvA3ztGPuqcifb2V/PPWw7fZGcvlBFh+0X462H+kZ7QTrYf6RntBF3h+1K+fWw/0jPaCGWH+kZ7QQ3WfTIPV3I/8AGgHqYf8Asu+uLp0MZQSP4h9mqZHA/ita1g+Yrsccfym+tdhgeXHp3fmmrzNeZXNMcP8Aj9Io42fKb619qenqqt4jpYJp3Hl1bDw+dzz4gHpWbNVMRvMtZFquqdoid3v0/G+W82wMz9jfLO/yMZG4Z9ZA9K0oLhafshtkck05a6snDRJw/EiYOUbCfefoXd2yVyWoZEX729PKIfoejYlWLj7V854pREWvbkREQEREBERAREQEREBERAREQEREBSoRAREQEREBSoRBKhEQEREEooRAREQEREEYac7eRfMxwDnHF7Lf3r6qqautctRTsuNNx9dSNInawvBfT/GyA3tZz82e5eqYiqdpY+RdqtW5rpjfZZ+rg+RF7LVPVwfIi9lqxnjl+W8/87vpTjl+W/23fSsnw35c9/EMfZ1bL1cHyIvZahjg+RF7LVjXHJ/SP9t30r6RNlmkjjD5PGOXHjfs0czzU8N+SPiGJnbsdWw9XDgYYzHmaBv5lPVw/IZ6gs3BcAA178AAfHd2bDtU8T/lv9t30p3M+7384onnbaP1cXyI/UFIawcg0ebAWb8b/lv9t30qOJ/y3+276VJtTtzWNZojjFtpSDG6zyGur6cgxVU7ccml7ntP/K7IVituoeteynrQ1j34ayZvisc7ucOwnsXzqtTDOx9VtXZ7NUdmVjUKAc4KlfJt0qERAREQFKhEBERAREQEREBERAREQEREBERAREQEREBERAREQEREBERAREQQmBggjY5z6ealETZnOpNPut8j62kYXUMpLnsaM+DPcc8h9yfcq371tDmRva5rmhzXNLXBwBBB5ggqk3jSBBkqLTjGS91I44b/AOy4/Mfcsy1e9KnJalpExM3ceOHt/pTPXvsNtyfIuvSU5gYS4fZX4LvxR2NH71+YKGWmeTUscycDAikGCwZ3Jzz8i9S+8zvyaCi3NM+bmIiKPqIilrXPcI2Ne+R3xWRtLnu8wCnD1WImeSO9dO0Wp9xeJJARRMPjncdeQfiNPd3ley3adlkLZbgeCPmKdh8Zw/4rh8wVqjZHG0MY0NY0ANa0AAAdgC+Fy76Q32DpdVUxcvxtCWtDQ1oAAaAAByAHYv0mAixXUbCIiKIiICIiAiIgIiICIiAiIgIiICIiAiIgIiICIiAiIgIiICIiAiIgIiICIiCN0wpRB8KikpKpvBUQxyN7ONuSPMea48+maB5JglnhJOcAiRvqeD8676eheormOTGvYtm9/Up3VR2lqrPi1sJHZxQvB9OHoNLVX3VbCPyYXH53q1+hPQvXe1MT5Vi7/T1V+HS9E3BnnnlI5hpEbT7Iz7116WhoqQcNPBHGO9o8Y+cnden0J6F5mqZ5sq1iWbX0UwhSiLyyhERAREQEREBERAREQEREBERAREQEREBEUoIREQEREBEWOdJNVXRamoI4aupijNDbi5kU0rGHNTKDlrThFbGiDt85+dEQREQEUoghERARFVr7rW02C4w2yppa6WeaKnma+nbCYgJ5XRNBL5A7IwSfFQWlERARZloi96wuOoKunus9fJRMoqqSNtRSCGMSCcNb4wjbvjlutNQEREBEUoIREQEREBERARSoQEREBERAREQEREBEK4mrHyR6Z1M+N7mSNtlUWOYS1zSGHcEboO2izjorqKqopdRmeonmLa6mDTPI+QgGAnYvK0dAREQEREBfiSSKKOSSWRjI2N4nvkcGsa3vc52wC/eD3rHdUV911fqZmmLdJw0VNUyU3C4nqXSwjNRVThp3DN2sGezvdsGgy610RC8xvvlEXA4PVl8g545xtI966dvu1mujXPt1fS1QZ8cQStc5g/Gb8YepVOm6MdJxQtZUOuNTKRl8rqp8ILu0tjhw0Du2KqGqdL1ejai3XmyVlQITP1UckhHXU1RgyNjkc0AOjfg5yOzGTlBtKxbpN+2ig/MLb+1SrVNPXZl8tFtubWhhqoA6VjTkRzNJZIz0EHCyvpN+2ig/MLb+1SosNp+k/OufV3qw0BcK250FO5pIcyapia8EdnBni9y9/YfOVSLh0b6fudyuFzqay5CWtnNQ+OB8DGNJ7AerLv8AqRHVdrjQzHcJvlHnOPFErh62tIXTt96sd2DjbbhS1XCOJwhkaXtb3lh8bHoVYb0Z6QAwXXRxxjJrZBt6BhUDU1nqdD3m31dsqpXMLHVdFLLjrQYXDrIJizAc08uXJ3eNw3ZfGoqqSkifPVTwwQs+NJPI2OMHsBc44yopZ21dLR1LMhlTBFOwHmGyMDh86xm7vumtNYyWgVDoqWGrq6SlBy6GmgpPFlnEZOC92D6wOQQaU7W+h2OLTfKPIODw9a8bfjNbj3r00+qtJVRAhvdtcTyDqhkZ9UmFX4ujDSjWAST3aR/DgvNVwZPkbG0NHmwvNUdFGnJQ8RXG6xlwIHWPp5mjIx93Hxf9QQXyoqqOlgkqqmeGGmja175pXtbE1riACXHbByMedYxr6tt9fqa21FHV09TTtpLYx8sEjXxtcyrme4F7dthuVrNzstLdLLLZJ5ZmU8sFNA6SHgEoEDmPBbxAt34R2LFdV6fotP3qjtdLPUSwz09FK+So6rrQ6ed8JA6tjW7ADHiosNo+E2lN/wCG7XzP/m4fpXvpaujroGVNFPFUU7y4NlgeHxuLXcLgHDbbkqJ9afTf4SvHt0f/ANdXGxWemsNspbVSyzSwUzp3MfUFhlPXSvmOTG1reZPYiP1S3myV0xp6O40dRO1r3uip52SPDWO4SS1p5A7LoLFujUAasuOAB/BtbyAA/lTVqt/ujbLZ7pcy1rn0sBMLHfFfO8iOJrvIXEZ8iD7V93s1qa19xr6WlDhloqJWse4d7WZ4j6lym630O93C2+UeTt4/WMHtOaB71l2mtN3PW1dcbjca6ZtPFK1lXWcLX1NTO5vF1MPHljQ0YzttsAN9r2OjDSQYG9dduID4/hhB8+A3h9yC3UVxtdxY99BW0tU1hAeaaVkoYXcuLhO2V6JpoII5Jp5Y4oYxmSSV7WMYOWXOccBcLTmlrZphtwZQzVcra2SGSTwp0bnNMTS0BpY1veeazjWFVdNR6tj07BNwU0VXDQU8byepEpjEs1RKwfGI34e7G3PcNFk1toeJ/A++UXFkjxDJI3P5TGke9feDVmj6kgQ3u3EnYB87Yj/8mFXafov0xHG1s1VdZpcDjkFQIQT5I42gAL5z9FOmpA/qq+7RFwIHFJBM0ZGNxJGT70F/jkjlYySJ7XxvaHMexwcxzTyLXDbCPexjXve5rWMa5znOIDWtAyS4nbC8tsoGWy3W63MkMjKKmhpWvc1rS9sbeEEtbssu1vd7pf7/AA6StUn2FtRHTSsa4tZU1ZHWSOnLd+riHMd7TzwMBfZ9Z6Kp5HRy3yh42nhd1b3SgEfjRAt9699vvdiuufqdcKWpIGSyKQGQDvMZw73KqUPRfpeCBjayWuq6jhHWSid9NHxdpjihIwPISfOqtq3Rsmlm0t7slZViFlRGxxe8eEUcriTHI2VoBLCfFIOdyOfF4pWyryVVytVD/La6jpjjixUTxRkjvAeQVztKXo3+x0FwfwipIdT1jW7NbUwngeQO47OA7OLHYudf9CWfUVybcq2rro3tpoqYR0xga0tjc52eJ8bnZ3PaiPW/W2iIyQ6+UWc48QvkHrY0heu36k0zdZOqt90o6iU5xE2ThlOPkskw4+pV5nRjpBrQ1z7q/wDKrHj3NACp2tdG02nGUVytlRVeDPqWwOEz+KamqCDJHJDKMP7DzOxGc74BW0rxVt0tFt6s3CupKUSB5j8JmZHxhgy4t4j2dq8GlLnNeNPWa4TuDqiWB0dQ4fdTQSOge7HlLc+lUXpaAL9Nh3IxXIE7ZAPVAndEakyWGSJszHsdC9gkbICOAsI4g7PLHavFS3myVtZPQUdfS1FXBF18sdPIJeCPiDMuc3xeZG2Vk9PbekbWNNRRn/wVkigghpxO59NRvija0B4gbmV5I5E7eXuvOk9ExaYnqKw176qpqKbwV4bCyGBjOsEviNGXZ27XILdJJHEx8kj2MjYC575HBrGgdrnHZcCbWmiYHmOS+UPEM/xbnyDbtzG0j3rOtdXW6X7ULNN0Li6ngqoaKOAEtZUV0g8aSct+5ZkjfIAaTzKsdB0WWKKFn1Qrq+oqCAZDTyCmgDvxGMHFt5XFBaqXVGla17I6a8W+SSRzWRs65rXve44DWtfg5Pcvnq77V9Ufour/ALhXFh6NdMU1ZQ10FRcxJR1dPVxsfO2Rj3wvEjQ4PZnG3YQu1q7PwX1P+jKr+4UFN6LJYKeh1PLPJHFE2vpuKSZ7WMGIO1zyArdLrXRMLix98ouIc+rL5R7UbSPesr0jpE6pbcHTXGWmo6KoijkhhjD3zSPYX8QMh4BjkPFKvkXRhpJjQHTXZ7gMFzqwtJ9DGge5FXlEREEREEE8LXOPJoLj5gMrBtFX202a81t1uzpz19HLHCYYjM4TTzCZ7jjvGVvRAcC08nAg+YjCwzQlutNTqKstl3o4KkeB1cUMdSziayopp28fCD24B/3zKvv1ztGfLuP6m76VX9X610vfbHU2+jNWaoz0k8HXU7o2Zima52Xk92Vdvgdon8A2z9Xap+BuivwDbP1dqDjdF7nHTHCeUdzuDI98jg4mu29JKp3Sb9tFB+YW39qlWv0Fvt1sgbS0FNDTU4c+QRQN4GBzzknCyDpN+2ig/MLb+1SoQ2j6Sq3e9aaZsEr6arqJJqtoBkpqNglkjBAwZXEhjc+VwXfqpTBT1M7QCYYp5QDyJYxzgPcsW0BbaK/6grqq6sbV9RTvuLo6jx2zVdRMR1krTzxvzHM+Tcixv6W7aSRS2WumPZxzRNJ8/UtkVO1lqWr1IKGWe1S2+OmirGw9Y6VxmEgbnBkjYNsDkFu8NPSwDEMEMYHLqo2MHIcuABZb0ufG0/3dRczgnbIEaK0axZ+olg/RdB/gMWS6hoNRaS1PVX2jp5HU0lXUVtNUtidLAW1PjSwVAZuNyR2dh82t2L+ZLB+i6D/AYugQDkEZBGDnt86IzGg6WaJwYyvtMjXgAPfb6iKVpPeI5uBwHpKtdp1rpO8Sx09NXGGqkPCynrWOp5XnuZx+KT5nFe2r05pmvB8LtFulJO7nU8bX5P47AD71l+vtKWqwMttZa+shgq5pKeSndI57YpGsMrZYXOPEORzv3HZFbOsZ6Sftttn5naf2yZabpesqK/T2n6yocXzz2+B0rjze8N4S4+U4ysy6S/F1VbHnYeA2t2TsMNrJslCGzd/nPzqQoyN90GNkRi3Rr9tdw/Rtb+1NVx6TpHM001gOBNcqONw7wBJJj1tHqVO6NftruH6Nrf2pqunSXC6XS8sgBPgtdRTux2AuMOT7SKjoyibHpWneOc9dcJX+UiXqt/Q0K7Ki9GFQ2XTRgyOOkuNbE8DniRwnafTxe5XpBBzhY7rO036yakfqS3wyvp5KiGuiqIYjK2mqGxiN7J2N34XAHz8XkWx7KCAf3ojLaDpahIYy42o8fJ0lvqGOB80M/CR7RVqtmvdIXN7IW1j6SoeQ1kVxjNOXOPINecxn2l1auwacrg7wy1W+YnPE6Sni4z/ztAPvWba80bY7PQwXO1xvgY+sipammL3Phc2YHD4mvyQQRyzg5ReDXQVg9gvVvt2rq+93V03VmW7FpijMj+vqJS0eKOzGVqOg62ortLWWWoeXyxtmpC9xJLm00roWkk78gFmenbdbXa4qrVdaaCogdUXmlbHUtDmGeKRz2HB2yQ0486Ivv1ztF/LuP6m/6VxtUa60rebDdrbSurDUVMcQh66mcxnHHKyUFzyduSt/wO0Sf/QbZ+rtU/A3RX4Btn6u1FVrookebPeWE/Y2XeQs3GMvhjLsYVrvepbDp9sZuVSWzStLoaaFjpamVo2Lmxs3x5Tgbc17LfbLVa4nwW6jgpYZJDK9lOwMa6QgN4jjtwAscbBHqXpDnprgXPppbpWslYTgOpqCJ5jhJG+DwgHlsT28yLPL0t2UFwpbVXzYOG8ckDM+iIyFVzVOtKvUdtZSOsk1FTNqoajwiSSWQF7WyAMBdCxuTk9vYVsVNQ2+lZGylpKaBrGhrWwwxsDQOzxQFT+k/Pwbixn+daPPdsyU8kV7Ojn7UbR/XXLl+ezKrdLnPT/9TdPmjVp6OcfBG0/11y/bZu1Vbpd56e/qbp80aDRbF/Mdg/RdD/gtXS+kLm2H+Y7B+jKH/Aaul/2RGKaXBq+kV88u5FffqnfteGyMHPu4ltaxPT5Ft6R3RSkNDrpeKPJIAJmbI9mD5SAPSts270WRcPV/2r6n/RdV/cK7hXC1dj4L6n/RdV/cKIqHRN/JdS/n9L/gFaZusz6Jv5LqX8/pf8ArTEURERBERA9KyDWOnr5Zb2dTWWOd8D6jw576ZnWvoqo/xnWRgEmN/PkRuQcbZ19MIMlp+lyaOMMrbPBJO3Zzoat9O0nyxSRPI9or6Hpanl2pdPhzj8XFZLLv5o6cfOtQfSUcji59NTudnPE+KMn1kL6MjjjHDGxjG9zGho9QQc+xV9Tc7TbLhVU3g09VAJZYMPHVuLi3GHjiWVdJcc0mqKDq4ZnjwC3DLI5HDIqZXEZaMLZ8FMH/AHlB+JGMkZJG8ZY9r2PG+7XAghYa03zo81BNM6lMlMRLAx8ocKasonPD24lYCA9uB5u7ffdcL8vjjkaWPY1zDza8BzT5wdkGWv6W2yDgo7C58zsNYH1jnjj/ACIoS4+sLg6jGv8AUdPHdblY54aGja+OKOCnfHKxkwBc/qnvM5Gw3wB5ltsdPTw56mGKPPPq2MYT6WgL64QUPo/1W+9QfUiWlbHLaKCnaaiOQ8ErGnqWgxOaC04AzufQubeukHUlnu10pH2infRU9U+KmllhrITJE0DDuty5hzvuGrS2wxNe+RscbXvGHua1oc4DlxOAyv3jPPcHmgygdL+GkOskXWY5i4ODc/kmnz71w6ur1j0iVlLFFR8FLCXsidFHKyhpeswHzTTv5uxyA9A332w0dE53E6lpi7OcmGMnPnIX2DQAAAABsABsB5EHltlBBa7fbrdASYqKmhpmOPNwY0N4j5TzWd9KNjrak2680sMsscFO+jrRC0vfExrzNFLwtycZLs7bbdi09MFBkVJ0tTQ0sENTaoJ6iNjGOmZWOibJwjHF1Ziccnt8ZaDpa+P1DaYblJTtp3PnqYjExz3tAikLGkOe0HcYPJdXwOh4jIaWmMhOePqY+LPfnGV9sY83Z5EGNdG0czdVV7nRTNabdWjL45GjPhLTjLhhazdLdBdbdcLdUbQ1kEkLnDcsJGWvaMjdpw4b9i9uP97ogwimqNX9H1xqg+mPUzEMm6xkklvrWsyGSxysAIO5xyIzgjZd/wCu87gaBZIDLsCfD38JPLZogz71q5a0gtIBaRhwIyD6Dsvk2ko2O4mU0DXc+JsUbXZ78gZQVjRuqLhqaO6yVVCykbSPpRB1fXEStlY9xJdKBnGOwLjak11qKxXmuo4rTDLb4RAIZpYKxpkLo2ufiZpMZAJxs35louEwd+7uQZS3pew3ElkiLxz4bg5oz5nU5K4lyvertezUlFRW4+DxTdbHFTskNK1+C3rqqpkAHigkDlz5ZW1upKJx4nU1OXc8uijJ9ZC+oY1oDWta1o5BoAHqCDmaftEdjs9stbHB5pYQ2WQDAkmcS+R4B7CScLPtd6Xu9NdfhLZYp38T4aioFGC6opauEACdjACS1wAzsdwcjDttWQoMjpOlqrhibHcLTTzTs2dJDVPpeIj5UT434Pf43oC+x6W5ZCG09gDnHkPDZJM92BHT5WoPpaSR3HLTwPf8p8THO9bhlftsUUf8XGxg7mNa0e4IOVpu6Vl6s9HcaqkNJPOZw6AiQcAZK5gI6wB24GeSy/VdtvOl9Tu1DRRONLNWG4QVAY58Mc0oxNT1HByDvG9DhjcbbQoIByCMg7EHuQZYOl6IsaG2PinLQMNrst48fcgQl2FzbvcekPWVE9rbA+K2U7m1gEcD2vldHkDgfUEPcRk7NYtgjpaSJ3FHTwMdnOWRRtOfO0ZX1xugyno71RNDNRaSno3ZdJXywzEujfCAJKp7Jontzz4sb9qnpaZLIdPhkcjyILnngY92MiPGeELUzDEXtlMbDIAQJOFvGARg4djK/eD5fmQc6xAiy2FrgQRbKEEOBBBELRggropgogynX2l7s25fCKzwzyh3Uy1baMHwmlqYMcNTGyPxiCACcbgjPm8tF0rXSmjbDc7bTVM0eGOlbLJRyOcBg9ZGY3tB78AebsWwEL4vpaWV3HLBC9+McUkbHOx3ZcMoMzoek+5XK4W2kp7LCIqmtpaaV7Zaid0ccsrWOeCyNrdgSfQrtq4E6Z1M0AkuttU1oaCS4lhAAA3XabGyMcMbGsb3MAaPU0KcFBm3RQyRlJqTjjkZxV1MW9YxzMjqSNuILSkA86ehAREQFKhEBERAREQFKhEEqERAREQSihEBERAREQEREBERAREQFKhEBERAREQSoREEqERAREQFKhEBERAREQEREBERAREQEREBERAREQEREBERAREQEREBERAREQEREBERAREQEREBERAREQEREBERAREQEREBERAREQEREBERB//Z;fontSize=19;clipPath=inset(10.87% 27.33% 34.78% 39.33%);aspect=fixed;" vertex="1" parent="1">
                    <mxGeometry x="-690" y="1125.79" width="68.78" height="68.78" as="geometry"/>
                </mxCell>
                <mxCell id="135" value="User" style="shape=umlActor;verticalLabelPosition=bottom;verticalAlign=top;html=1;outlineConnect=0;fontSize=19;" vertex="1" parent="1">
                    <mxGeometry x="-570" y="122.57" width="60" height="90" as="geometry"/>
                </mxCell>
                <mxCell id="136" value="" style="shape=image;verticalLabelPosition=bottom;verticalAlign=top;imageAspect=0;image=data:image/jpeg,/9j/4AAQSkZJRgABAQAAAQABAAD/2wBDAAsJCQcJCQcJCQkJCwkJCQkJCQsJCwsMCwsLDA0QDBEODQ4MEhkSJRodJR0ZHxwpKRYlNzU2GioyPi0pMBk7IRP/2wBDAQcICAsJCxULCxUsHRkdLCwsLCwsLCwsLCwsLCwsLCwsLCwsLCwsLCwsLCwsLCwsLCwsLCwsLCwsLCwsLCwsLCz/wAARCAEJAQkDASIAAhEBAxEB/8QAHAABAQEBAQEBAQEAAAAAAAAAAAgHBQYEAQID/8QAQBAAAQMBAwMSBgEEAgMAAAAAAAECAwQFBhEHF1USExYhMTZTdYGRkpOUs7TR0tM0NUFRcXRhFBUiQnKxYqHh/8QAFAEBAAAAAAAAAAAAAAAAAAAAAP/EABQRAQAAAAAAAAAAAAAAAAAAAAD/2gAMAwEAAhEDEQA/ANbAAAAAAAAAAAAAAAAAAAAAAAAAAAAAAAAAAAAAAAAAAAAAAAAAAAAAAAAAAAAAAAAAAAAAAAAAAAAAAAAAAAAAAAAAAAAAAAAAAAAAAAAAAAAAAAAAAAAAAAAAAAAAAAAAAAAAAAAAAAA8jfe+EV16KNkCRy2rWtelHE/bZExu06eVE28E3Gp9V/hq4B6Wsr7Ns+PXq+spaSJVVEfVTRwtVfsiyKm2cRb9XFaqotu0WKfbXVTkVGYE7WhaVp2rUyVlo1U1TUyL/lJM7FUTHHUsTcRE+iIiIfIBSezu4mnaPmm9A2d3E07R803oJsAFJ7O7iado+ab0DZ3cTTtHzTegmwAUns7uJp2j5pvQNndxNO0fNN6CbABSezu4mnaPmm9A2d3E07R803oJsAFJ7O7iado+ab0DZ3cTTtHzTegmwAUns7uJp2j5pvQNndxNO0fNN6CbABSezu4mnaPmm9A2d3E07R803oJsAFJ7O7iado+ab0DZ3cTTtHzTegmwAUns7uJp2j5pvQNndxNO0fNN6CbABSezu4mnaPmm9A2d3E07R803oJsAFJ7O7iado+ab0DZ3cTTtHzTegmwAVNZ9u3ftVdTZ1qUNVJgq63BOx0qIm2qrHjq//R0iSWPkjeySN7mSMcj2PYqtc1yLiitcm3ibDk/v9VVs8NhW3MstTImos+tkVNXK5Ex1id31cv8Aq7dXcXFVxUNVATcQAAAAAAAm2/VpS2nem3ZHuVWUtS+z4G44oyKkVYcG/lUc78uUpLzJavD8/vJxxafiZAP6u/Y014LWorJhmjhkqknVskqOcxutRPmXFG7e3qcD3WZ62dMUHVTnAya787C/FoeCmKIAxfM9bOmKDqpxmetnTFB1U5tAAxfM9bOmKDqpxmetnTFB1U5tAAxbM9bOmKDqpxmetnTFB1U5tIAxbM9bOmKDqpz9zPWzpig6qc2gAYvmetnTFB1U4zPWzpig6qc2gAYvmetnTFB1U4zPWzpig6qc2gAYvmetnTFB1U4zPWzpig6qc2gAYtmetnTFB1U4zPWzpig6qc2kAYtmetnTFB1U5+5nrZ0xQdVObQAMXzPWzpig6qcZnrZ0xQdVObQAMXzPWzpig6qc/Mz1s6YoOqnNpAE2XrulVXUls6KorIKl1bHNI1YWPajEjc1uC6v74nnYpZYJYponuZLC9ksT2Lg5j2Kjmuav3RTUcsfxl2/1a3vIzKwKrsmt/uVl2RaGCItbQ0tU5qf6ulia9W8iqqH2nCuhvXuvxTRd2h3QAAAAAB5oS1eH5/eTji0/EyFS+aEtXh+f3k44tPxMgHdya787C/FoeCmKIJ3ya787C/FoeCmKIAAAAAAAAAAAAAAAAAAAAAAAAAAAAAAMbyx/GXb/AFa3vIzKzVMsfxl2/wBWt7yMysCm7ob17r8VUfdod04V0N691+KqPu0O6AAAAAAPNCWrw/P7yccWn4mQqXzJavD8/vJxxafiZAO7k1352F+LQ8FMUQTvk1352F+LQ8FMUQAAAAAAAAAAAAAAAAAAAAAAAAAAAAAAY3lj+Mu3+rW95GZWaplj+Mu3+rW95GZWBTd0N691+KqPu0O6cK6G9e6/FNH3aHdAAAAAAHmS1eH5/eTji0/EyFS+ZLV4fn95OOLT8TIB3cmu/OwvxaHgpiiCd8mu/OwvxaHgpiiAAAAAAAAAAAAAAAAAAAAAAAAAAAAAADG8sfxl2/1a3vIzKzVMsfxl2/1a3vIzKwKbuhvXuvxVR92h3ThXQ3r3X4pou7Q7oAAAAOQcgDzQlq8Pz+8nHFp+JkKl8yWrw/P7yccWn4mQDu5Nd+dhfi0PBTFEE75Nd+dhfi0PBTFEAAOQcgADkHIAA5ByAAOQcgADkHIAA5ByAAOQcgADkHIAA5ByAAOQcgADkHIBjeWP4y7f6tb3kZlZqmWP4y7f6tb3kZlYFN3Q3r3X4pou7Q7pwrob17r8U0Xdod3kAAcg5AAAAeaEtXh+f3k44tPxMhUvmhLV4fn95OOLT8TIB3cmu/OwvxaHgpiiCd8mu/OwvxaHgpiiAAAAAAAAAAAAAAAAAAAAAAAAAAAAAADG8sfxl2/1a3vIzKzVMsfxl2/1a3vIzKwKbuhvXuvxTR92h3ThXQ3r3X4qo+7Q7oAAAAAA8yWrw/P7yccWn4mQqUly8jHR3hvKxyYObbFpIvaXgdfJ3NT097rFmqJooYWNrtXJNIyONuNJM1MXPVE3VRChIa2z6liyU9XSzMRysV0M0UjUcm2rVVjlTEk8AVrrsPCR9NvmNdh4SPpt8ySgBWuuw8JH02+Y12HhI+m3zJKAFa67DwkfTb5jXYeEj6bfMkoAVrrsPCR9NvmNdh4SPpt8ySgBWuuw8JH02+Y12HhI+m3zJKP1qK5UaiKqqqIiImKqq7SIiIBWmuw8JH02+Y12HhI+m3zMQpMkt5Z6JtRNWUNNVPYj2UkuuuVuKY6maRiKiL98EceDtChrbMrKqgrYVhqqWRYpo3YLqXJt4oqbSoqYKiou2i/yBVeuw8JH02+Y12HhI+m3zJKAFa67DwkfTb5jXYeEj6bfMkoAVrrsPCR9NvmNdh4SPpt8ySgBWuuw8JH02+Y12HhI+m3zJKAFa67DwkfTb5jXYeEj6bfMkoAafldqaSorbAbBUQSuhgrY5mwyse6N+uM/xejFVUX8mYAAU3dDevdfiqj7tDunEumx8d2LrtcmC/2igdgu6mqha5P+ztgAAAAABfqYdlSu7NRWr/fII1WitTUJO5qbUNaxupVrv+aIjk/lHfbb3E+eso6K0KWooq2Bk9LUMWOaKRMWvbu/nFN1FRcUVMU3AJPBqluZJK5kkk1gVkU0Cqrkpa52tzR4/wCrJURWO5dTy7q+ZXJxlBRVT+zKuH1SsoMF/GMwHkQetzcZQtCu7ZZ/vjNxlC0K7tln++B5IHrc3GULQru2Wf74zcZQtCu7ZZ/vgeSB63NxlC0K7tln++M3GULQru2Wf74HkgetzcZQtCu7ZZ/vjNxlC0KvbLP98DyR9tk1UNFalkVszVfDSV9HVSsRMVdHDM2RzURfuiHz1NPPR1FVSVDNRUUs8tPOzFrtRLE5WObi1VTaVF3FP8gKxpqujrKWKspZ4pqWaPXYpo3IsbmffH/v/wCE85QLTs+1b0WlUUDmSU8TIKXXo1RWTvgYjHPaqbSpjtIv1RqLuKeYbPUMjfC2WVsT9t8bXuRjv+TUXA/zAAHpqS4d+K6mpaylsl0lNVQx1EEn9VQt1cUjdU12pfMjkxT7oB5kHrc3GULQru2Wf74zcZQtCu7ZZ/vgeSB63NxlC0K7tln++M3GULQru2Wf74HkgetzcZQtCu7ZZ/vjNxlC0K7tln++B5IHrc3GULQru2Wf74zcZQtCu7ZZ/vgeSOzdqwau8dr0dnQI5I3OSWslTcgpWuTXJFXDDH6N+6qifU9TZmSi9dVI3+4yUlnQY/56qRtTPh/4RwKrOeRDXbv3bsa7VItLZ0So6RWuqaiXB1RUPamCLI9ETaTbwRERExXaxVVUOtHHHFHFFG1GxxsbHG1NxrGpqURPwf2AAAAAAAAAAAAAAAAAAAxQYoAH2GKDHcAly8e+G83HNqeKkOUdW8e+G83HNqeKkOUAAAAp66m9i63E1ndw0mEp66ipsYutxNZ3cNA7QGKDFAAGKAAAAAAAAAAAAAAAAAAAAAAAAAAfzI9kbHyPXBrGue5UTH/Fqapdo/o/MEXaVNr+QJ9tTKTfKtrKiakrnUNIr3f09NTxwrrcf+ure9iuV33XHd3ERNpPh2fX905VdCn9s95aeSGmqKyeezbV/pKWV7ntppqZZdZVy4q1kjZG4tT6Ypj/ACu6fFmbq9Pwdif7oHkNn1/dOVXQp/bGz6/unKnoU/tnr8zdXp+DsT/dGZur0/B2J/ugZdUTz1U9RU1EjpJ6iWSeeR2GqfLI5XucuH1VVVT/ACNWzN1en4OxP90Zm6vT8HYn+6BlINWzN1en4OxSe6MzdXp+DsT/AHQMpPQ019b6UdPTUlNbFRHT00UcEEbWQKjI42o1rUVWKu0n8ntczdXp+DsT/dGZur0/B2J/ugeQ2fX905VdCn9sbPr+6cquhT+2evzN1en4OxP90Zm6vT8HYn+6B5OHKFf2KWOT+8yyalUVWTQ0743p9Ucmt7nKbzd21kt2xbKtXW0iWrgV0kaY4MlY90UiNVdvDFq4fwZtDkckSWNZ7easKORZEholSRW47aNV8qoir98F/C7hqln0FHZlFR2fRx6impIWQwt3VRrfq5fqq7aqv3UD6gAAAAAAAAAAAAAAAAAAAAAAAAAAAAAAAAAAAAAAAAAAAAAAAAAAAAAAAAAAAAAAAAAAAAAAAAAAAAAAAAAAAAAAAAAAAAAAAAAAAAAAAAAAAAAAAAAAAAAAAAAAAAAAAAAAAAAAAAAAAAAAAAAAAAH/2Q==;fontSize=19;aspect=fixed;clipPath=inset(17.17% 7.36% 15.28% 7.36%);" vertex="1" parent="1">
                    <mxGeometry x="-470" y="80" width="221.12" height="175.13" as="geometry"/>
                </mxCell>
                <mxCell id="137" value="" style="shape=flexArrow;endArrow=classic;html=1;fontSize=19;strokeColor=#F0F0F0;exitX=0.552;exitY=0.992;exitDx=0;exitDy=0;exitPerimeter=0;strokeWidth=4;" edge="1" parent="1" source="136">
                    <mxGeometry width="50" height="50" relative="1" as="geometry">
                        <mxPoint x="-350" y="262.57" as="sourcePoint"/>
                        <mxPoint x="-348" y="332.57" as="targetPoint"/>
                    </mxGeometry>
                </mxCell>
                <mxCell id="138" value="Sends request" style="text;html=1;strokeColor=none;fillColor=none;align=center;verticalAlign=middle;whiteSpace=wrap;rounded=0;fontSize=19;" vertex="1" parent="1">
                    <mxGeometry x="-217" y="512.5699999999999" width="130" height="30" as="geometry"/>
                </mxCell>
                <mxCell id="139" value="Request reponse" style="text;html=1;strokeColor=none;fillColor=none;align=center;verticalAlign=middle;whiteSpace=wrap;rounded=0;fontSize=19;" vertex="1" parent="1">
                    <mxGeometry x="-720" y="522.5699999999999" width="150" height="30" as="geometry"/>
                </mxCell>
                <mxCell id="140" value="" style="shape=flexArrow;endArrow=classic;html=1;strokeColor=#F0F0F0;fontSize=19;entryX=0;entryY=1;entryDx=0;entryDy=0;strokeWidth=4;" edge="1" parent="1" target="136">
                    <mxGeometry width="50" height="50" relative="1" as="geometry">
                        <mxPoint x="-470" y="332.57" as="sourcePoint"/>
                        <mxPoint x="-430" y="252.57" as="targetPoint"/>
                    </mxGeometry>
                </mxCell>
                <mxCell id="141" value="" style="shape=flexArrow;endArrow=classic;html=1;fontSize=19;entryX=0.74;entryY=-0.002;entryDx=0;entryDy=0;entryPerimeter=0;strokeColor=#F0F0F0;strokeWidth=4;" edge="1" parent="1" target="110">
                    <mxGeometry width="50" height="50" relative="1" as="geometry">
                        <mxPoint x="-239" y="482.57" as="sourcePoint"/>
                        <mxPoint x="-242.59000000000003" y="568.0099999999998" as="targetPoint"/>
                    </mxGeometry>
                </mxCell>
                <mxCell id="142" value="&lt;font style=&quot;font-size: 22px;&quot;&gt;Autocompletion&lt;/font&gt;" style="rounded=0;whiteSpace=wrap;html=1;fontSize=19;" vertex="1" parent="1">
                    <mxGeometry x="-720" y="672.5699999999999" width="180" height="50" as="geometry"/>
                </mxCell>
                <mxCell id="143" value="&lt;span style=&quot;font-size: 22px;&quot;&gt;Localisation&lt;/span&gt;" style="rounded=0;whiteSpace=wrap;html=1;fontSize=19;" vertex="1" parent="1">
                    <mxGeometry x="-500" y="672.5699999999999" width="180" height="50" as="geometry"/>
                </mxCell>
                <mxCell id="144" value="&lt;span style=&quot;font-size: 22px;&quot;&gt;Sorting and Filters&lt;/span&gt;" style="rounded=0;whiteSpace=wrap;html=1;fontSize=19;" vertex="1" parent="1">
                    <mxGeometry x="-277" y="672.5699999999999" width="190" height="50" as="geometry"/>
                </mxCell>
                <mxCell id="145" value="Application Layer" style="text;html=1;strokeColor=none;fillColor=none;align=center;verticalAlign=middle;whiteSpace=wrap;rounded=0;fontSize=41;fontStyle=1" vertex="1" parent="1">
                    <mxGeometry x="-680" y="592.5699999999999" width="550" height="60" as="geometry"/>
                </mxCell>
                <mxCell id="146" value="User Interface" style="text;html=1;strokeColor=none;fillColor=none;align=center;verticalAlign=middle;whiteSpace=wrap;rounded=0;fontSize=41;fontStyle=1" vertex="1" parent="1">
                    <mxGeometry x="-670" y="342.57" width="550" height="60" as="geometry"/>
                </mxCell>
                <mxCell id="147" value="" style="shape=image;verticalLabelPosition=bottom;verticalAlign=top;imageAspect=0;image=data:image/jpeg,/9j/4AAQSkZJRgABAQAAAQABAAD/2wBDAAsJCQcJCQcJCQkJCwkJCQkJCQsJCwsMCwsLDA0QDBEODQ4MEhkSJRodJR0ZHxwpKRYlNzU2GioyPi0pMBk7IRP/2wBDAQcICAsJCxULCxUsHRkdLCwsLCwsLCwsLCwsLCwsLCwsLCwsLCwsLCwsLCwsLCwsLCwsLCwsLCwsLCwsLCwsLCz/wAARCADqAMoDASIAAhEBAxEB/8QAHAABAAEFAQEAAAAAAAAAAAAAAAcDBAUGCAEC/8QATBAAAQMDAQQFBQwGBgsAAAAAAAECAwQFEQYSITGRBxNBUVUUFRcilBYjMjVhdYGTs9HS0zZCUnF0tDM0Q1aSlSQlRFRygqGjscHh/8QAFAEBAAAAAAAAAAAAAAAAAAAAAP/EABQRAQAAAAAAAAAAAAAAAAAAAAD/2gAMAwEAAhEDEQA/AJbAAAAAAAAAAAAAAAAAAAAAAAAAAAAAAAAAAAAAAAAAAAAAAAAAAAAAAAAAAAAAAAAAAAAAAAAAAAAAAAAAAAAAAAAAAAAAAAAAAAAAAAAAAAAAAAAAAAAAAAAAAAAAAAAAAAAAAAAAAAAAAAAAAAAAAAAAAAAAAAAAAAAAAAAAAAAAAfMckUrGSRPY+N7Ucx8bkc1zV4K1zd2D6AAAAClNU0tMjXVE8MKOXDVmkZGjlRM4RXqhR852jxCh9pg/EBdgtPOdo8QofaYPxDznaPEKH2mD8QF2C0852fxCh9pg/EV4Z6aoZ1lPNFMxHKxXwyMkbtJxTLFVMgVAUZ6qjptjyiogh29rY66Vke1s4zs7apwymT4ir7bM9sUNZSySOzssjnie92E2lw1rs/KBcgbgAB4rmtRznKiNaiucqqiIiJvVVVS2842v/fqP2iH8QF0D5Y+ORjJI3tfG9qPY9jkc1zVTKK1ybsFCSvtkT3Ry1tJHIxUR7JJ4mvauM4VrnZAuQWnnO0eIUPtMH4h5ztHiFD7TB+IC7Baec7R4hQ+0wfiHnSz+IUPtUH4gLsAAAABCXRvrNbbNFYLnLi31MipQzSL6tJUSLnq3KvCN68lXPByqk2nOettJT6XuPvSPktVYrn0Ezt6txvdBKv7TezvTC8co2QejfWfnKCKw3ObNxpo8UM0i+tV07Ez1blXjIxOaJni1VUJLwMAARd0xfF2nv42p+yQim2WS+XlahLXQT1a0/VrP1DUXq+s2tnayvbhcfuJW6Yvi7T/8bU/ZIWXQ18PVn/Daf/NUBo/uJ1z4DX/Vt+8e4nXPgNf9W37zpbd8g3fIBzT7idc+A1/1bfvJi6N7Zc7Vp6SluNJLS1C3KqlSOZEa5WOZEiOwi8Ny8jdN2ewcgMNqPT1v1JbJ6CrRGvwr6SoRqK+mnRPVkbns7HJnem75U5zq6S86au7oJduluNuna+OSNf1mrtMlicqb2rxTd2/QdSmna60fHqagSama1t3oo3LRvVUb17PhLTSOXsXi1V4L3I5QLnRuqqbVFtZKuxHcaVGR3GBvBHqm6WNM52H8U7lym/GXbQcvWa73XTN2iraZHx1FNI+Cpp5UcxJY9rZkp5mrv7O7cqIvFpKuqOkm3ssNI6xTZuV2gVU3p1ltj3skWXH9oi5axP8Am4Y2wxvSXrPaWo01a5fVauxd5413ucn+yMVOxP7T/D2Ki6zoPR8mpa5amrY5LPQyN8qcmW+UyphyUzHJ37leqcEXsVyKYfTen7hqe6RUVPtNZlJa2pciubTwZ9Z7u9y8Gpneq9iZVOkLZbaC0UNJb6GJIqalZsRt7V7XPeva5y5VV71AuWRxxxsjjY1kcbWxxsjRGsYxqYRrWpuRE4IQXrHSmra/U1+q6Oz1k1NPUtdFKxjVa9qRsblq5+QncfQgHNPuJ1x4DX/Vt+8wVRT1FJUVFLUxuiqKeV8M0b0TaZIxdlzVx3HWf0Icxas/SfVPzxcft3gVItG60miimislc+KaNksb2sbhzHtRzXJv7UUqN0TrhHMVbDX4Rzc+9t7/AJVOhbH8S2HcnxXb/wCXYZD6EAd4wAAwMAAY682i3323Vdtro9qCdu5zcdZDIm9ksarwc1eHJcouF5xu9qvGlLw6llc+KqpJI6mkqYVVqSMR2Y54Xcez6FRU7Dp81nWGlaXVFtdD6kdxpkfJbqh3BkipvikVN+w/CIvduXfjChS0Vq2n1Pbsyqxl1pEayvhTcjuxs8afsu7e5d3crtrOXrfXXrSt5bURtfT11BM6GoglyjXtRcSQTIi72r+/uVN6IqdG2G+W/UNtp7lRO9STLJYnKiyU87UTbhkx2p/1RUXgoGhdMXxdp/8Ajan7JCLrNqPUOn/K/NFatL5X1XlGIaeXb6ra2P6ZjuG0vDvJR6Yvi7T38bU/ZIYjomttpuLtTpcLfRViQttnVeWU8M/V7a1O1sda1cZwmf3fIBrnpG6QvGnex0H5I9I3SF4072O3/kk6+5rSX937J/l1H+WPc1pL+79k/wAuo/ywNC6NtU6mv11udPdq9amKG39dExYaaNGyddG3a95javBVJTLKjtNlt8j5KC2W+kkkbsPfR0sEDnsztbLnRNRcF6AALK6XO32egq7jXy9XTUzNt6phXvcu5rI0VUy5y7kQCOekvRnlUcuorXD/AKTCxXXSCNP6aJqf1lqJ+s1Ph96b+LfWhtN6oiqiIqplVzhPlXG8k+w9Jle/UdTJdVcloucrIYoWbUiW7HqROjREyqdkmE35yibtlbHpE0Z5kqXXe2xf6qq5VSaKNPVoah652cJwjd+r3Lu3bshKWjrDabFZqSOgliqXVkcdXUVse9Kt725RzF/YRFwxP/blVdkIR6N9Z+bJ4rDc5cW6plVKKaRfVpKiRfgOVeEb15KueDlVJuAAAAcxas/SfVPzxcft3nTpzFqz9J9U/PFx+3eB0ZY/iWw/Ndv/AJdhkTH2P4lsPzXb/wCXYZAAAYDWU08Gl9RTQSyRSx0L3RyQvcyRi7Td7XNVFQDPgjGl1DdrV0X0F1hkkmuMj56dlRUKs7onSV00fWv6zOVaiYbnKZxxRMLh6O03ytpKKsk6UGwPq6eCpfA+6TNfC6ZiSLG5PKUwrc4X1U4cEAmYAAR50i6M89U7rxbYs3Wji9/iYnrVtOxM4RE4yN/V703b8JiMdHaqqtL3Jsy7cluqlZHcKdq73Rou6WNF3bbMqqd+9N2cp0jgj299F1mu9xqbjBWzUHlK9ZNBDDHJGsy73SNy5MbXFU789+EDFdLFTS1lm0vV0srJqaoqZ5YZY1y17HQtVFQ1LQusKHSa3pamjqKny9KJGdQ+Nux1HXZ2tvv2kx+43x/Rf1lup7VJqGqfRU1VLV07HUkSrFJK1GvRjlkyjV444ZyvFVzZ+hy3+OVXskX5gFX0w2Twi4fW0/3j0w2Twi4fW0/3lL0OW/xyq9ki/MHoct/jlV7JF+YBV9MNk8IuH1tP95uemNQ0+prc64wU0tPG2qlptiZzXOVY2sdtZZu7TR/Q5b/HKr2SL8w3fS2nYtMW11tiqn1LXVU1V1kkbY1RZGsbs7LVXhs9/aBmpJIomSSyvZHHGx0kj5HI1jGNTac5znbkROKqc+a71hJqauSClc5tnopHJRsVFb18nwVqZGrvyvBiLwRexXKTTqaxVOoqFLcy5y0NNI7aq0hhbI6oamFbG5znJhqLvVO3d3YXUKHois9PWUs9Vc6irghkbJJTOp2RtmRu9GOej1XC9u7h3ZygY/oz0Z/V9S3SHt27RBIn0eVvav8A2/8AF3KSrVUlJW01RSVcLJqaojdFNFJva9jtyovb+7/4VmtaxrWta1rWojWo1ERERNyIiIegc2aw0tV6XuboF25KCpV8luqHInvkSKmY3qm7bZlEd9C7trCSR0b6084wxWC5y5uFOxUoJpF9argYmercq8XsTmid7VV27X+xW7UVtqLbWt9R+HwytRFkp52ouzLHntTei96KqdpokHRHT00sFRT6grYp4JGTQyR0sbXxyMVHNc1UkzlFAlAFOBkzIIGTypNMyNjZZUYkfWvRERz9hqqiZ44yVABzFqz9J9U/PFx+3edOkbXToqorncbncXXmojfXVdTVrGlLG5sazPWTZRdtM4yBvNj+JbD812/+XYZAt6KmSjo6GjR6vSlpqemR7kRFekUbY9pUTdvwVpGNkZJG7Oy9rmO2XK1cORUXCpvAtKq6Wqjo6q4VFXC2jpXbFRMxVlbG7bSPZd1W0ucqiKmDAaruFvr9EX2vpKiOWjqbe5YJk2mtftStjRMPRFzndhU47ivZNGWOyW262pi1FXSXN71qmVr2rtMVnVoxqRNaibu3jnfncmMGnRXp9HdW653p1v67r/IFqI0hV+e1UZ9GcZ+XtAo2Cv0/bOjixrqFm1bqx1XSyRrA+ZHrLVVErMtYmU+DlF7Fx2laPoz6P6qOOqgfWrBUsbPCsdaisWORNtuyrmKuMKmMqpuFTZbPWWvzNPSROtyQx07KdMtbGyNERnVqm9FbhMLk0peiLSqqqpcL01FVVREmpVwndlYAJG5DkAA5DkAA5HvI8ADke8jwAOQ5AAOQ5AAOQ5AAOQ5AAOR7yPAA5DkAA5DkAA5DkAA5DkAA5DkAA5DkAA5HvI8ADke8jwAOQ5AAOQ5AAOQ5AAOQ5AAOR7yPAA5DkAA5DkAA5DkAA5DkAAAAAAAAAAAAAAAAAAAAAAAAAAAAAAAAAAAAAAAAAAAAAAAAAAAAAAAAAAAAAAAAAAAAAAAMjIADIyAAyMgAMjIADIyAAyMgAMjIADIyAAyMgAMjIADIyAAyMgAMjIAAAAAAAAAAAAAAAAAAAAAAAAAAAAAAAAAAAAf/2Q==;fontSize=22;clipPath=inset(28.63% 0% 28.63% 0%);aspect=fixed;" vertex="1" parent="1">
                    <mxGeometry x="-703" y="342.57" width="133" height="65.84158415841584" as="geometry"/>
                </mxCell>
                <mxCell id="148" value="" style="shape=image;verticalLabelPosition=bottom;verticalAlign=top;imageAspect=0;image=data:image/jpeg,/9j/4AAQSkZJRgABAQAAAQABAAD/2wBDAAsJCQcJCQcJCQkJCwkJCQkJCQsJCwsMCwsLDA0QDBEODQ4MEhkSJRodJR0ZHxwpKRYlNzU2GioyPi0pMBk7IRP/2wBDAQcICAsJCxULCxUsHRkdLCwsLCwsLCwsLCwsLCwsLCwsLCwsLCwsLCwsLCwsLCwsLCwsLCwsLCwsLCwsLCwsLCz/wAARCADqAOYDASIAAhEBAxEB/8QAGwABAAIDAQEAAAAAAAAAAAAAAAUGAQQHAwL/xABCEAACAgECAwQGBQoFBAMAAAABAgADBAUREiExBhNBkSJRYXGBsRQjMlLwFkJTc5OhssHR4RUzNWKCNHSz8SRykv/EABoBAQADAQEBAAAAAAAAAAAAAAADBAUBAgb/xAAyEQACAgEDAgQFAgUFAAAAAAAAAQIDEQQSIRMxBRRBUSJhgZGhUsFCcbHh8BUjMmLR/9oADAMBAAIRAxEAPwDrcREAREQBERAEREAREQBERAEREAREQBERAEREAREQBERAEREAREQBERAEREAREQBERAEREAT5d0rR3dlVEUs7MdlUDmSTPqVbtNqHNNPqbkOG3J29fVEPzPwkF9ypg5sjsmq47mM3tO3EyYFSlRuO+uBJb2qnLl7z8JH/AJRa3+mr/Y1/0kRE+cnrLpPO7Blyvsbzkl/yi1z9NX+xr/pH5Ra5+mr/AGNf9JERPHmbv1P7nOtZ+ol/yi1z9PX+xr/pH5Ra5+mr/Y1/0kREeZu/W/uOtZ7kv+UWufp6/wBjX/SZHaPWwQTbUwHgaU2PlsZDxHmbv1v7jrWe5cdO7RUZLpTlItNzkKjqT3TsfDnzBk/OXy86DqBzcQJY2+Rj8Ndm/V1/Nf4+PumvodY7H07O5d097m9siXiImsXBERAEREAREQBERAEREAREQBERAEREA1s/LrwcW7JfnwDZF+/YeSrOd222XWWW2MWssdncnxZjuZM9otQ+k5Qxq2+oxSVO3R7ujH4dB8ZBz5vX6jq2bV2Rl6izfLC7IRE2sLAzdQsavGr4gv8AmWMeGuv2M3r9koRi5PEeWV0m3hGrMgMxVVVmZiFVVBLMx5AACbedpubp7IuQq7PvwPWSyNt1G5AO/wAJs9nlVtWxuIA8Nd7rv4MF2B/fJI1Sdirlw8npQe5RZr3aVq2PV392K61AbsQysUH+8KSRNKdOZVZXVgCrKysD0II2IM5kdgT6gT5byzrNNGhra+5LfSq8YMRJTF0LVMuhchFqRHHFUtrlXsX1gAHr4bmR1tVtNj1WoyWIdmVxsRKkqpwSlJcMhcJJZaPibumZzafl1Xjc1/YuUfnVt18uo900onIycJKUe6OJuLyjpyMjqrqQVYBlI6EEbgifUrnZrP7ypsCw+nSOOjfxq35r8P5+yWOfWUWq6CmjZrmpxyhERJj2IiIAiIgCIiAIiIAiIgCIiAJGazqAwMN2U/X3b1UDxBPV/h/SSRIAJJ2A3JJ6ACUHV886hmPYpPcV71UDw4AebfHr/wCpS1t/Rr47vsQX2bI8dyO9vM789/XERPlzINrAwrtQya8arlv6Vr7biusdW9/gJf8AFxcfDprx8dAtaDl62PizHxJ8ZF9nMIY2Ct7D67M2tbfqK/zF8ufxnx2h1N8SlcWhit+QpLsvWurpuPaeg+M39NXHS09Wfd/5g0qoqmG+Xc0e0mo414qw6SHam02XOPsqwUrwA+vnz/G2l2c/1aj9TkfwiREl+zn+rUfqcj+ETOjc7tTGb90VYzc7VJl48D7jOYt1Yest8507wPuPynMT1b3t85c8U/h+v7E+s9C9aPqONm41NakLfTUiWVnkdlAXiX2TOr6VXqFJZABlVr9S/TiHXgb2GUii67GtrupcpZWd1P8AI+z1zoGn5lefi05Kciw2sX7li8mWTaW+Oqg6rFySU2K2OyRztlZGZWBVlJVlPIgg7EGYk/2mwlpyaspBsmSCLNunep4/EfKQExbqnVNwfoULIbJOJ7Y2Rbi305FR9Opww9RHip9/SdExsirKopyKjulqBh6x6wfaJzWWLs3qHdWtg2N6FxL0En7Nnivx/l7Zd8P1HTnsfZ/1J9NZtltfZluiIn0RpiIiAIiIAiIgCIiAIiIAiIgEF2j1A4+MMSttrsoEOR1SnofPp5ymSY7Rsx1S0HolNCr7ivF/MyHny+tsc7mn6cGTqJOU38hMqhseusdbHrrH/Ngv85ie2IQMvBJ6DKx9/wBosqRWWkQLudIRFRErUbKiqij1ADac/wBXvORqOdYTuFtapPYtfoD5ToXj8ZzTJBXJywRzF9wPv4zNzxN4hGK7Ghq3iKR5SX7Of6tR+oyPkJESR0TIpxdSxrbiFrK2VFieSlxsCfZMjTtK2LfuilVxNF+8D7j8pzE9W97fOdHycrGxqLMi2xRWqkj0hu525KvrJnNzzJPr3M0vFGm4r+f7FvVvOBLL2VyCLM7FJ9FkS9R6iDwN/KVqTnZgE6jaR0GJZv8AF02lHRtxvjgr0PFiJ3tFULNLvbxoeq1f/wBcB/cZRp0DWiBpeok/odviWAE5/LXiaStT+RLq18aEyrMjI6Eq6MGVh1VgdwRMRMsqHQ9MzVz8Oq8bB/sXKPzbV6+fUe+bsrPZNm4NTX80WUMPeVYH5CWafV6Wx2VRkzYqlvgmxERLJKIiIAiIgCIiAIiIAiIgFW7T4TcVOeg9HhWi72EElW/lKxOmX01ZFN1Fo3rtUow9h8R7ROdZeNbh5N+NZ9qptgfvKeYYe8T57xGjZPqLs/6mbqq9sty9TwmQSpDDqpDD3g7iYiZZTOlY1yZGPj3pzFtSWD/kAZStfxWxtRvbb6vJ+vQ+1uTDz+cluzOerVvgWN6dfFZRv+chO7KPcefx9kldV05NRxjXuFurJeh/U232T7D4/wBp9DbHzmnTj3NOS61WV3OfxPS6m7Htem5GSxDsyt1Ht90858+008MzcY7mdydhz2HQb9PdMREAS19lsVlqysxht3zLTV7Ur34j8T8pA6dpt+pXiuvdaUI+kXeCL91T94+H43v9NNWPVVTUoSqpFRFHQKJq+HUNy6r7LsXNLW2977EP2lvFWnrSD6WTcq7f7U9Mn5ecpcldczxnZrd2d6McGqojox39J/ienukVK2ttVtra7LghvnvnwI5DmegiSmiaf9PzU413x8bhtu36Md90T49T7vbK1cHZJQj3ZFGLk8IsnZ7BfDweOwEXZTC91PVVI2RT7duvvkxET62utVwUF6G1CKhFRQiIkh6EREAREQBtG0RAG0bREAbRtEQBtK/2k0/vqBm1r9bjja0D86knr/x/nLBMMoYMrAFWBDA8wQeRBkN1Stg4M8Tgpx2s5hG039VwW0/MtpAPdN9ZQT41k9Ph0mhPk5wcJOMu6MaUXF4Z91W20WV3VMVsrYMjDwIl60rVcfUawCVTKQfW1b9f9yb9R+PfQp9I9lbq9bMjqd1ZSQyn1giWNNqZUPjsS1Wut/I6Fm6bhaggW+vdgPQsQ7WL7m/lK7f2Wy1JONkVWL4LcCjeagj5TOF2nurCpm1d6BsO9q2Wz/kp9E/uk1Trui2gf/KWsn824MhHxI2/fNZvS6rl8P7MuZpu5ZWx2a1okArjL7TduB5LvJDF7KqCGzcjjA61Y4KqfYXPpeQEmzqekgbnNxduvK1T+4Gad/aLR6Qe7d728BSh23/+z7CeVptJX8Unn6nFVTHlv8knTRRjVpTRWldSDZVQbASu65racNmFhvuW3TIuU8gOhRD8z+BG6hr2fmhq0+ooPIpWTxuPU79fLaREg1OvTj06e3v/AOEduoytsBERMcpAAkgKCzMQqqOrMTsAJ0HScAafh1UnY3N9ZkMPzrW6/AdB7pXezen9/kNnWL9VjMVp36NeRzP/ABH7z7JcZu+G0YXVl69jQ0teFvY2jaImwXRtG0RAG0bREAbREQBERAEREAREQBERAIrW9P8Ap2GxQb5FG9tPrbl6SfH+Uok6hKR2g0/6Jl99Wu1GUS426JZ1Zf5j+0xfEqM/7sfqUdVX/GiGiImIZ4iInQIiIOiIicOCelFNuTdTj0je25wieob9WPsHUzzlq7Mafwo+o2L6VoNeNv4Vg+k4956ewe2WNPS7rFAlqrdksE/h4tWHjUY1Q9CpAu56s3UsfaTznvET6yKUVhdjYSwsIRETp0REQBERAEREAREQBERAEREAREQBNbOw6M7Hsx7QQG2KsOqOOjCbMTzJKSwzjSfDOfZuk6jgswspZ6h9m6pSyEe3bmPjND8eM6hPnhT7q+QmTLwtN/DLCKb0izwzmP48Y/HjOncKfdXyEcKfdXyE8f6X/wB/x/c55P5nMfx4x+PGdO4U+6vkJ5ZLPTj5NtVS2W102PWm322UEgbDnOPwvCzv/H9zj0mPU5t+PGBuTsAST0ABJPuAl10LOzc9MtsqlQK3QV2Co1hiwJZdj6uXnJrhUdAvkJ4r8PVkVNS4fy/uchplJbkykaboObmOr5KPj4oO7cYK22D7qKeY39Zl2rRK0StFCoihEUdFUDYAT6ia2n00KFiPct11KtcCIiWSUREQBERAEREAREQB5R5REAeUeURAHlHlEQB5REQCI1TXMbTWFQQ3ZHCHZQwVa1PQu2x8tv7xlfauwMBfhLwtzHd2MrbesB12PnNPWBdha19LsrDo1teRT3n+XYFULwb+sbfKTFetaHnoKcyvu+LkVykDV7n1OOXx5THd9k7JR37cPhYKXUlKTW7B7ZOuUV6dXn4yGwW3dwiWbpwuOLi49t+m0137T4iYePcat8m0NxUBwFrKsV3Z9uh6jlvPPtDTjUaXhVYyIlK5S92te3Dsa3O429cx2b07HOOc+2tbLbLLFp4wGFSIeHdQfEkHnJJWXu7pRa7f4z05WOzYn6HjT2rcv9diIU35mmw8aj17ONj5iWAZ2M+FZn1N3lKU2W7Dk3oAkqQeh8Jr6tp2PmYl5Nai+qt7KbAAGDKOLhJHgeh/tK1o97/RdfxtzwPp12Qo9TKvAT8dx5TnVuonsseU1wxvnXLbJ5ySlPamk05D34/DajKKa6m3FgbfqzDlttz989cHtAcpNSa3GCjDxzk/VOW3A3HAxI5H8eEgNG05dRzO7tJ7ilBbeFJBfnwqm49fj7vbLZnY+NjaVqVePTXUn0S70alCjkvjtPOns1Fkeo5cLP1PNcrJLc3wjWwNdGVjalfbj8DYVfestbcQdCGIAJHXlzmvT2oxzRkWZNPBbWyiuuttxaGBO+7AbbeJ/wDUi9I/6DtP/wBnX8rJ99m8LGysnKtvRbBipUa0cbrx2FvSIPLlty98jhqb59OMXy8/ueY22S2pPubKdrHL7nDrNe/MJcS4HvK7Sx4mVRm0V5FDb1vv1GzKRyKsPWJF6/g4jafdkCpFux+BkdFCkqXClTt4c5CYGTbRomuBWILX01Jt4d8qq23wkyutot2WvKxk9qc657ZvPBK53aeih3rxKlu4CQ1rtw1bjrw7Dcj28p84Xaeq61KsupauMgC2tiyKTyHGrcwPbvNbs1p+Pf8ASM25Fc1WCmhWAKqwUMz7Hx5gD+8sOdgYudS9NqLxFT3dgUcVbbcmBirzNseqpJeywdg7Zrfn6Efp+unOz7MT6OEQra1Lh+JiKyPtjpz68v7yclH7PArq9SnqtOUp29YAEvEn0Vs7a90++SSibnHMh5R5REvE48o8oiAPKIiAPKPKIgDyjyiIA8o8oiAPKIiAQv8AjeiZNt+JkbKiuyb5KKabCp4Tz57fECRes4XZ+rHa/DtpW/iQJVRaHSwE7H0ATtsOe/8AWTOboOmZrtaVam5ubWUEKWPrZSCpPwmlX2UwVYGzJybE33KDu69/YWUcX7xMu6q+acZRT+fsVJxslw0n8yHdrW7PYockqmp2JTv+jFbch7AdxN/s/q+Lj0thZVgrCuz0WN9ghzuVY+HPmP7c9ntJVTRpmFTSipVXkolaKNgqip+QnlpelYWpaRjd8GW1LcoJbUQHA71uR3BBHsIleMLK9QoweWl9yNRlGzEXykbeq61gVYt9WPdXdfdW1adyQyoGGxZmXly8JDaNjP8AQdezSCK/oN+NUT+cQpZyPdyH/qSdXZXBVwbsnItQHfg9CsEepig4v3iTZxcf6M2IqKlDUtRwVjhCow4dhtLKouun1LeMLhEnTnOW6fGCtdk/8/Uv1OP/ABPJ/Vf9N1P/ALW7+EyOqp03s1VZdZZkXNlOtY9FC+yAsAANhsPE7yUDY2pYW6ljj5dBAP2W4XG3nPenhsp6LfxcnqqO2Gx9ypaR/wBB2m/7Ov5WTd7J/b1Xp9nF+dklMLQ8TDx86jvLbRmLwWs/CpCAEAKFG3iZ66XpNGljI7u2yxrypdrOEbBN+FQFAHiZDRpbISrb9M5/J4rplFxb9Brv+k6h+rT/AMiyt6Xivl6Tr1VY3sFtFlYH5zVqH2Hv5iW7Lx68zHvxrCwS5eFih2Yc9wRvNDFwqNDws2yvvr2AbIs32DuUXYKoUbASa+hzuU3/AMcNP8kllblPc+2CD7P6pj4RvxsluCq5xYlhBIRwOEhtvA7CTmdrmm41LNVfVfeVPdJUwccR6FyvID4yu2ZHZ/UWa6+vIwr3JLvjcNtLn7zKRvv6/RnzxaBhA2475GblqD3DXp3dFT+FhUgbkdRyPwlGvUTqhsUlj39fsV42ShHamsGezpJ1eknmTRlE7+vYby8+UpWhd1hm/VstmTGCHGobhZjdbYeJigHM7bfP1S34+RRlU15FDh6rASrbEdDsQQee48Zc8O4rw+75JtLxDDPbyjyiJpFoeUeURAHlERAEREAREQBERAEREAREQDXy8PFzqTRkpx18QcAMykMOhDKd59Y2Pj4lNePjoEqrBCqCT1O5JJ57z2iedsd27HJzCzkRET0dK12r/wAnTv11v8Amli6/kYuHiYuLid6cekC53DsAdyd9q+g9pM3e1f8Alad+uu/gE3ezqUppeOyAcVr3PaR1Z+8K7H3AATIlGctXJQljgpNSdzUXjgxpOuVai5osr7rICl1AbiSxR1Kk89x6vwPrVdbx9NIqVO+yCvGU4uFK1PQu2x8tvLxrlAWrtFUtHJF1OytQvQISysB7Osyyrf2iK380bU2Vg3MEISEU7+HJZ483b09ufizjJzrT249c4N5O1GYjIcjBUVvzHB3lbEete8Gxlkx8rGysdMmpwaXUtxNy4dvtBt+hHjI/tClTaVks4HFU1L1E9Q5sVeXwJkHp1ly6D2gC78K2KFIPQWKgfb4SdW2UWuub3LGSTfKEtsnng+dQ1DSMnIK42lVXMWI7362t7dvFUo2bb2kzOm29n3yK6svTUqsZwiO9l1tQs32Culx5fvm32Urq31K07d6DRWD4rWQzcveflNTtSlSZtbqAHfED2bdSVZlDH28v3Sm9/TWpeHz2wivzt6rx/LBsdpctd6dOWhlWk13izoh3RlCooG2w39fhPTs5qW4p0wY7kKuRablJKjdy+zjbl12HP+332gZ30nS3f7bWUM+/3jQxM3ezm3+EYv6zJ/8AM8ngpPWcP0/HsSpN39/QmIiJsF0REQBERAEREAREQBERAEREAREQBERAEREAg+0ODmZtGL9Fr716bXLIGVWIZdtwWIHL3yKXTe1OBWExHYpcgaxKLK/q7GHpDazbmPWDLjEp2aSM5uzLT+RBKmMpbs8la0PQ8nGvGbmhVsRWFFQYOVLjYu7DlvtyHM9fL61nQ8jIvObgle+bha2stwEuu2z1t035f3ljiPJ1dPpen5O9GG3aU67C7XaiKqMpSK0YHe56UQHpxMKt2J+HzlhwtMx8TBOCfrEsWz6Qx5G17Bsx2HT1D3SQidq0sa5OTbbfudhUovPdlQ/wjtBpeQ9mnN3qEFQyNWGKb7gWV2cvn8JnH0PVc/KGTqp4U4laxWdWttC9E2r9EL6+f9Zbokfka893j29Dx5eP09iK1vAuz8JascL3tVq2opPCGABUqD08eUh9MxO1WPbiUhWoxK7uO0WPSU4C27gBSWO/Pb3y2xJLNLGdisy0/kepUpy3CIiWyYREQBERAG8bxEAbxvEQBvG8RAG8bxEAbxvEQBvG8RAG8bxEAbxvEQBvG8RAG8bxEAbxvEQBvG8RAG8bxEAbxvEQBvERAEREAREQBERAEREAREQBERAEREAREQBERAEREAREQBERAEREAREQBERAP//Z;fontSize=22;clipPath=inset(5.56% 14.78% 14.1% 18.7%);aspect=fixed;" vertex="1" parent="1">
                    <mxGeometry x="-698.11" y="852.5699999999999" width="65.11" height="80" as="geometry"/>
                </mxCell>
                <mxCell id="149" value="" style="shape=flexArrow;endArrow=classic;html=1;fontSize=19;strokeColor=#F0F0F0;strokeWidth=4;" edge="1" parent="1">
                    <mxGeometry width="50" height="50" relative="1" as="geometry">
                        <mxPoint x="-233" y="752.5699999999999" as="sourcePoint"/>
                        <mxPoint x="-233" y="842.5699999999999" as="targetPoint"/>
                    </mxGeometry>
                </mxCell>
                <mxCell id="150" value="" style="shape=flexArrow;endArrow=classic;html=1;fontSize=19;strokeColor=#F0F0F0;entryX=0.783;entryY=-0.005;entryDx=0;entryDy=0;entryPerimeter=0;strokeWidth=4;" edge="1" parent="1">
                    <mxGeometry width="50" height="50" relative="1" as="geometry">
                        <mxPoint x="-230" y="942.5699999999999" as="sourcePoint"/>
                        <mxPoint x="-229.73000000000002" y="1088.9699999999996" as="targetPoint"/>
                    </mxGeometry>
                </mxCell>
                <mxCell id="151" value="" style="shape=flexArrow;endArrow=classic;html=1;strokeColor=#F0F0F0;fontSize=22;exitX=0.315;exitY=0.002;exitDx=0;exitDy=0;exitPerimeter=0;entryX=0.3;entryY=1.008;entryDx=0;entryDy=0;entryPerimeter=0;strokeWidth=4;" edge="1" parent="1" source="112" target="111">
                    <mxGeometry width="50" height="50" relative="1" as="geometry">
                        <mxPoint x="-560" y="972.5699999999999" as="sourcePoint"/>
                        <mxPoint x="-510" y="922.5699999999999" as="targetPoint"/>
                    </mxGeometry>
                </mxCell>
                <mxCell id="152" value="" style="shape=flexArrow;endArrow=classic;html=1;strokeColor=#F0F0F0;fontSize=22;exitX=0.315;exitY=0.002;exitDx=0;exitDy=0;exitPerimeter=0;strokeWidth=4;" edge="1" parent="1">
                    <mxGeometry width="50" height="50" relative="1" as="geometry">
                        <mxPoint x="-547.23" y="842.5699999999999" as="sourcePoint"/>
                        <mxPoint x="-547.53" y="752.5699999999999" as="targetPoint"/>
                    </mxGeometry>
                </mxCell>
                <mxCell id="153" value="" style="shape=flexArrow;endArrow=classic;html=1;strokeColor=#F0F0F0;fontSize=22;exitX=0.279;exitY=0.002;exitDx=0;exitDy=0;exitPerimeter=0;strokeWidth=4;" edge="1" parent="1" source="110">
                    <mxGeometry width="50" height="50" relative="1" as="geometry">
                        <mxPoint x="-559.7" y="572.5699999999999" as="sourcePoint"/>
                        <mxPoint x="-557" y="482.57" as="targetPoint"/>
                    </mxGeometry>
                </mxCell>
                <mxCell id="154" value="Processes Query" style="text;html=1;strokeColor=none;fillColor=none;align=center;verticalAlign=middle;whiteSpace=wrap;rounded=0;fontSize=19;" vertex="1" parent="1">
                    <mxGeometry x="-240" y="782.5699999999999" width="130" height="30" as="geometry"/>
                </mxCell>
                <mxCell id="155" value="Fetch within database" style="text;html=1;strokeColor=none;fillColor=none;align=center;verticalAlign=middle;whiteSpace=wrap;rounded=0;fontSize=19;" vertex="1" parent="1">
                    <mxGeometry x="-220" y="982.5699999999999" width="130" height="30" as="geometry"/>
                </mxCell>
                <mxCell id="156" value="Retrieves data" style="text;html=1;strokeColor=none;fillColor=none;align=center;verticalAlign=middle;whiteSpace=wrap;rounded=0;fontSize=19;" vertex="1" parent="1">
                    <mxGeometry x="-680" y="1002.5699999999999" width="130" height="30" as="geometry"/>
                </mxCell>
                <mxCell id="157" value="Processes data retrieved" style="text;html=1;strokeColor=none;fillColor=none;align=center;verticalAlign=middle;whiteSpace=wrap;rounded=0;fontSize=19;" vertex="1" parent="1">
                    <mxGeometry x="-695" y="782.5699999999999" width="130" height="30" as="geometry"/>
                </mxCell>
                <mxCell id="158" value="" style="shape=image;verticalLabelPosition=bottom;verticalAlign=top;imageAspect=0;image=data:image/jpeg,/9j/4AAQSkZJRgABAQAAAQABAAD/2wBDAAsJCQcJCQcJCQkJCwkJCQkJCQsJCwsMCwsLDA0QDBEODQ4MEhkSJRodJR0ZHxwpKRYlNzU2GioyPi0pMBk7IRP/2wBDAQcICAsJCxULCxUsHRkdLCwsLCwsLCwsLCwsLCwsLCwsLCwsLCwsLCwsLCwsLCwsLCwsLCwsLCwsLCwsLCwsLCz/wAARCADqAKkDASIAAhEBAxEB/8QAHAABAAEFAQEAAAAAAAAAAAAAAAEDBAUGBwII/8QAQBAAAgIBAgMDCQMJCAMAAAAAAAECAwQFESExQQYSURMUIjJCUmGBoWJxkRUjM0NTseHw8SQ0VJKissHRRGNy/8QAGwEBAAEFAQAAAAAAAAAAAAAAAAIBAwQFBwb/xAAwEQACAQMBBAkEAgMAAAAAAAAAAQIDBBEFEhMhMSIyQVFhcaHR8BSBweEGkTNCsf/aAAwDAQACEQMRAD8AqEkAyzqxIIABIIABIIABIIABJAABIIABIIABIIABI4kAAbjf4ma0HRnqVvnGRFrBpns1/ibI+wvsr2vw8dtu/JGj/wCCx/8AKQc0ng0t3rFG1qbvDb7cdhzcAEzdAAAAAAAAAAAAAAAAAAAAAAAAAyOkaVbqmQ4elDFpcXk2rg+PFVwfvP6Lj4b0MDAydSyYY1HDfaV1rW8aat9nJ/H3V1f3cOi4eHjYOPVjY8O7XWuvGUpPi5yfVvqQnLHA0mq6krWO7p9d+nj7fM1aqqaKq6aYRhVVFQrhFbRjFcEkewDHPCttvLOUAAyzqoAAAAAAAAAAAAAAAAAAAAAKuPj5GXfVjY8O/da9op792KXOc30iuv8AEpxhZZOuuqEp22SUK4QW8pzfJI3/AETSK9Mobn3Z5l0U8ixcUtuKrr+yvrz+6MpbJrNRv42dPPOT5L8+RcaXpuPpmNGir0ptqd9rW0rbNtnJ/Dol0/ffhAxmc/qVJVJOc3lsAAEDlAAMs6sAAAAAAAAAAAAAAAAAAB/BJJbtt8Ekl1DaS3fBLdts2vs5ojXk9SzINS9bCqmuME+V00+r9nw583wo3hZMS7u4WlN1J/Zd7Lvs/ovmUPPMqK89tjtGD2fm1cvZX2n7T+X37CAYzeXk53cXE7mo6lR8WAAULAAABygAGWdWAAAAAAAAAAAAAAAABldF0ieqXOVilHBpltfJcHbJcfIwf+5/8vgbwWa9aFCDqVHhIu+z2i+ezhnZUN8OuW9FclwyLIv1mvcX1fwXpbueYQhCMIQjGMIRUYxikoxilskkuh6MaUss55e3k7ypty5di7kAARMIAAAAAA5TtLwY2a6M0VSmuUpL7m1+4qwy82HqZORH7rZ/9mTtHrY/yKH+1N/3+jdAanDVtVh/5MpLwsjCf1a3+pdV6/lx28rTTYvs96t/va+hXaMunr1rLrZX29smxAxVWu4M+FsLqn1eysivnHj9C/pysTI28hfXY/djLaf+WW0voVybOjeUK/8Ajmn87isBxAMsAAAAFfDw8nPyK8XGW9k/SlJ79yqtcHZP4L68gRlKMIuUnhIr6ZpuRqmSqK24VQ7ssm5LhXB9F07z6fj049DxsejEopx6IKFNUe7CK6L4vxfNlLT8DH07GrxqE+7HeU5y9e2x85zfi/55F2Y85bR4DUtQleVMLhBcvd/OAABA1QAAAAAAAAB83AAvkQAAAPB9QAC8o1PUMfZRulOC9i785HbwXe4/gzLY+u489o5NUqn79e86/mvWX1NdBXJsbfU7m34Rlldz4r55G71203QVlNkLIe9Bpr5ns0iq26manTZOua9qDafzM1h63ZKdVORTOyy2cKqnjQ71llk33YxVS5tvhw/AkpHpbTXaVXo1lsv0/XzibBTTdkW00UQdl10u5XBdXz3b6Jc2zoWkaVTpeN5NNTvs7ssm7b157cl9ldF/yy20HRlptXlr1GWddFeUa4qmHPyUH/ufV/BGbLM5Z4I1Wral9RLc0n0F6v27v7AALZoAAAAAAAAAAAAD5uABfIgAAAAAAAAENxinKTSS4ts6p2H7JSwY161qlW2oWw3wsexccKma2781+1kufup7c2zF9heybypY+vanV/ZoSjbpWPYv0so8Vl2J+yv1a6+t4HUi3KXYVQAKV99ONTbfdNQqqi5Tk+i8F8XyRASkorL5FUGm19q8hZls7ak8GckoVxUVbVBcO8pdW+bTf3fHbMbKx8umF+PZGyqfKUd+D6qSfFPxRcnSlDrGBZ6jb3jaoy4r5nyKwALZsAAAAAAAAAD5uABfIgAAAAAA23sb2Ueu3rPzoNaNjWNd2S/v98HxrX/ri/XfV+j47WHZjs5kdo851tzq03FlF6hkR4Se/pLHpl78ur9lcebW/bsfHxsSijGxqoVY9Fcaqaq1tCEIrZRSISljgVRUioxUYxSUUkkktkkuCSSJALZUiUowjKcpKMYRcpSk9oxilu22+hoOuaxPUrvJ1OSwqZPyae6dsuXlJL/b/Hhddoda86lLBxZ740Jfn7IvhfOL9VNeyvq/guOuGxt6OOnI8Drur75u2oPorm+/w8v+gvdP1LM027yuPP0Xt5WqW/k7UveXj4P+jsgZbipLDPK0qs6UlOm8NHS9O1LE1KlW0S2lHZW1S279Un0fw8H/AEV6cuxMvJwr68jHn3LIfOMo9YzXVM6BpWq42p0d+HoXQ2V9Le8oN9V4xfRmsrUHT4rkdH0jWY3q3dThNevl7GRABjHoQAAAAAD5uABfIgAAAyWiaNna9qFWBiegtlbl5Dj3oYtG+zm11k+UF1fwTatsHBztTzMbT8GvymVkSagnuoVwXrW2tcoR5v8ADm9n3LQNBwOz+BXh43p2Sasy8iaSsyb2knOW3JdIrouHxcZPARdaZpmBpGFj4GDV5PHojtHfjOcnxlZZLm5SfGT/AJV4AWiQ3NW7R613FZp2JP02nHLsi/UT51Ra6+94cufq3eva0sGt42PNee2x4tcfIQftP7T9lfP/AOtGbbbbe7b3bfNv4mbb0c9OR5DXtX3adrQfS7X3eHmQADYnggAAAV8TLycK+vIx592yHj6sovnGa6p/zyKAKNJrDJwnKnJTg8NHS9O1HH1LHjfVwkto3VtrvVWbcn8PB/yr05ppuoX6bkwvqbcfVur39G2vqn8fB/8AfHouNk0ZdFWRRNSqtj3ovr4NNeK5M1Nalu3w5HTdH1RX1PE+uufj4lYAFg3gAAB83AAvkQe6qr77aMfHqndkX2RpoprW87LJcorf6volvyR4b5cG22opRTlKUm9lGKXFt8kjrvYrsn+SKVqeo1p6tk17RhLaSwaJcfJR6d9/rH8lwW8qN4BkOyfZjH7PYbdjhbqmVGEs7IiuC24qinfj3I/V8Xz2jsgBZJAxes6tVplHDaWVamqK3yXTyk/sr68viq+pajj6bjyvu4ye8aa1wlbPbkvh4v8Ao+d5WVkZl9uRfLvWWPd+7FLlGK8F0MmhR23l8jzutasrOG6p9d+i7/Yp2WWXWWW2zlOyyTnOUnu5SfVngA2hzZtt5YABUoAAAAAADOdn9WeDkeb3T/smRJJt8qbXwU/ufKX49OODBCcFNYZlWtzO1qqrT5o6wga/2b1R5eO8S575GLFd1vnZRyT+9cn8vE2A084uD2WdZtLmF1RjWp8n8wAAQMk+biG0k22kkm23wSS6sk3bsR2U/KltOsajVvplE1LCpmvRzboP9LNPnVF8vea8F6d5vBEynYTsk4eQ1/VKmrWlPSsaxbOmMlwybYv22vUXRceb9Do4BabySBQysvHwqLci+XdrrW724yk3yjFeL6FS2yqmudts4wrri5zlJ7KMVzbOf6zq1uqX+j3o4tTaorfN9HZP7T+nL4u7RpOo/A1GqalCwpZ5yfJfnyLfUtQyNSyZ32+jFbxprT3jVX0S+Pi/6KyANtFKKwjl9WrOtN1JvLYABItAAAAAAAAAAAAFxh5V2Fk0ZVT9KqW7W+ynF8JRfwa4f0OlY99WTRTfTLeu6uNkH12a5P4rkzlptfZTPf57TrHw4342/wDrgv3r5mHdU8raXYeq/jl/uq3003wly8/37G2gA1p0I4n2S7L2docp25EZR0fFs2ypreLyrFx82rkuO37RrkuHOXo9qrrrqhXVVCEK64RhXCEVGEIRXdUYxXBJdCjhYWHp2LjYWHTCnGxq1XTXDlGK8W+Lb5t9W9+pcFW8lAQ2km20klu2+CS8WSah2i1rvuzTsSXoLeOXZF+u1zqi/D3vw6cZ06bm8Iwr69p2VJ1an2Xey017WvP5vGx5PzOqW7kv180/Wf2V7P4+G2BANvCCgsI5XdXVS7qurVfF/MAAEzFAAAAAAAAAAAAAAABWxsizFyMfJq/SUWRsj8ducX8Gt18yiCjWeBKEnCSlF8UdTouryKaL6nvXdXGyD+zJboqmt9lMzyuJdhyfpYs+9Xv1qt3f0e/4o2Q0tSOxJxOvWVyrqhCsu1evb6gAw2uaxHTalXS4vMui/Jp8VVHl5SSf+nx+RSMXJ4RduLinbU3VqPCRa9oda81jPBxZ7ZM47XWR50QkuUX7z+i+/hpRMpTnKU5ylKc5OUpSbcpSb3bbfUg29KmqccI5ZqOoVL6rvJcuxdyAALprQAAAAAAAAAAAAAAAAAAAADK6BleaapitvaF7eLZ91m3d+uxv/lKv2sP8yOWJyTTi9pJpxfg1xTLjz7P/AGz/ABZi1qDqSyj02k6z9FSdKSys5Rv2q6nTpmM7JJSunvHHqb278l1f2V1/ic9vvuybrb75udtsnKcn1fgl4LkjK9ppSlq16lJtQqx4wTbainBS2Xz3ZhhbU1GO12st69fVK9w6L4Rg+X5IABlHngAAUAAAAAAAAAAAAAAAAAAAAABPDxIJItg//9k=;fontSize=22;" vertex="1" parent="1">
                    <mxGeometry x="-200" y="342.57" width="60" height="70" as="geometry"/>
                </mxCell>
                <mxCell id="159" value="&lt;span style=&quot;font-size: 22px;&quot;&gt;User functionalities&lt;/span&gt;" style="rounded=0;whiteSpace=wrap;html=1;fontSize=19;" vertex="1" parent="1">
                    <mxGeometry x="-730" y="422.57" width="190" height="50" as="geometry"/>
                </mxCell>
                <mxCell id="160" value="&lt;span style=&quot;font-size: 22px;&quot;&gt;Data Visualization&lt;/span&gt;" style="rounded=0;whiteSpace=wrap;html=1;fontSize=19;" vertex="1" parent="1">
                    <mxGeometry x="-265" y="422.57" width="190" height="50" as="geometry"/>
                </mxCell>
            </root>
        </mxGraphModel>
    </diagram>
</mxfile>